<svg xmlns="http://www.w3.org/2000/svg" width="736" height="1438" viewBox="0 0 736 1438" font-family="Arial, Helvetica, sans-serif"><rect width="100%" height="100%" fill="#fff"/><defs>
<pattern id="hall" width="8" height="8" patternUnits="userSpaceOnUse" patternTransform="rotate(45)"><rect width="8" height="8" fill="#fff"/><line x1="0" y1="0" x2="0" y2="8" stroke="#555" stroke-width="1.4"/></pattern>
<pattern id="flex" width="9" height="9" patternUnits="userSpaceOnUse"><rect width="9" height="9" fill="#fff"/><path d="M0 0L9 9M9 0L0 9" stroke="#666" stroke-width="1"/></pattern>
<pattern id="wall" width="4" height="4" patternUnits="userSpaceOnUse"><rect width="4" height="4" fill="#222"/></pattern>
</defs><text x="24" y="30" font-size="12" font-weight="bold" fill="#000">retained valid candidate 2 of 6</text><text x="24" y="44" font-size="11" font-weight="normal" fill="#000">GB-01 (D59 fourth reference plan, CF-01 style)   |   candidate 1-2239627   |   STAGE 6 of the real generator output</text><text x="24" y="58" font-size="11" font-weight="normal" fill="#000">seed 1   |   strategy seed CF-01   |   hallway shape: spine</text><text x="24" y="72" font-size="11" font-weight="normal" fill="#000">FINAL VALIDATION (stage 6, independent validator): VALID, all 17 rules pass</text><text x="24" y="86" font-size="11" font-weight="normal" fill="#000">footprint (outside face) 11700×16060 mm = 187.90 m2 | envelope max 12500×20500</text><text x="24" y="100" font-size="11" font-weight="normal" fill="#000">room area 144.64 m2 | hallway area 23.36 m2 (reported separately) | flex 0.00 m2</text><text x="24" y="114" font-size="11" font-weight="normal" fill="#000">All sizes are clear internal dimensions in mm unless marked. Provisional - uncalibrated (G-CALIBRATION).</text><rect x="24" y="174" width="687.5" height="1127.5" fill="none" stroke="#000" stroke-width="0.8" stroke-dasharray="1 5"/><text x="28" y="186" font-size="9">envelope max 12500×20500 (dotted)</text><rect x="198.3" y="431.9" width="74.3" height="178.8" fill="url(#hall)" stroke="#000" stroke-width="1.2"/><text x="235.5" y="519.3" font-size="9" text-anchor="middle" fill="#000" stroke="#fff" stroke-width="2.5" paint-order="stroke">Hallway widening (slack)</text><text x="235.5" y="530.3" font-size="9" text-anchor="middle" fill="#000" stroke="#fff" stroke-width="2.5" paint-order="stroke">1350×3250</text><rect x="217.6" y="616.2" width="55.0" height="149.6" fill="url(#hall)" stroke="#000" stroke-width="1.2"/><text x="245.1" y="689.0" font-size="9" text-anchor="middle" fill="#000" stroke="#fff" stroke-width="2.5" paint-order="stroke">Hallway widening (slack)</text><text x="245.1" y="700.0" font-size="9" text-anchor="middle" fill="#000" stroke="#fff" stroke-width="2.5" paint-order="stroke">1000×2720</text><rect x="278.1" y="431.9" width="55.0" height="789.8" fill="url(#hall)" stroke="#000" stroke-width="1.2"/><text x="305.6" y="824.8" font-size="9" text-anchor="middle" fill="#000" stroke="#fff" stroke-width="2.5" paint-order="stroke">Hallway strip</text><text x="305.6" y="835.8" font-size="9" text-anchor="middle" fill="#000" stroke="#fff" stroke-width="2.5" paint-order="stroke">1000×14360</text><rect x="278.1" y="1221.8" width="55.0" height="66.0" fill="url(#hall)" stroke="#000" stroke-width="1.2"/><text x="305.6" y="1252.8" font-size="9" text-anchor="middle" fill="#000" stroke="#fff" stroke-width="2.5" paint-order="stroke">ENTRY</text><text x="305.6" y="1263.8" font-size="9" text-anchor="middle" fill="#000" stroke="#fff" stroke-width="2.5" paint-order="stroke">1000×1200</text><rect x="217.6" y="586.0" width="55.0" height="55.0" fill="url(#hall)" stroke="#000" stroke-width="1.2"/><text x="245.1" y="611.5" font-size="9" text-anchor="middle" fill="#000" stroke="#fff" stroke-width="2.5" paint-order="stroke">Hallway link</text><text x="245.1" y="622.5" font-size="9" text-anchor="middle" fill="#000" stroke="#fff" stroke-width="2.5" paint-order="stroke">1000×1000</text><rect x="247.8" y="431.9" width="55.0" height="178.8" fill="url(#hall)" stroke="#000" stroke-width="1.2"/><text x="275.4" y="519.3" font-size="9" text-anchor="middle" fill="#000" stroke="#fff" stroke-width="2.5" paint-order="stroke">Hallway link</text><text x="275.4" y="530.3" font-size="9" text-anchor="middle" fill="#000" stroke="#fff" stroke-width="2.5" paint-order="stroke">1000×3250</text><rect x="247.8" y="616.2" width="55.0" height="149.6" fill="url(#hall)" stroke="#000" stroke-width="1.2"/><text x="275.4" y="689.0" font-size="9" text-anchor="middle" fill="#000" stroke="#fff" stroke-width="2.5" paint-order="stroke">Hallway link</text><text x="275.4" y="700.0" font-size="9" text-anchor="middle" fill="#000" stroke="#fff" stroke-width="2.5" paint-order="stroke">1000×2720</text><rect x="59.8" y="431.9" width="133.1" height="117.2" fill="#fff" stroke="#000" stroke-width="1.2"/><text x="126.3" y="482.5" font-size="10" text-anchor="middle" fill="#000" stroke="#fff" stroke-width="2.5" paint-order="stroke">Shared Bathroom</text><text x="126.3" y="494.5" font-size="10" text-anchor="middle" fill="#000" stroke="#fff" stroke-width="2.5" paint-order="stroke">2420×2130 mm</text><text x="126.3" y="506.5" font-size="10" text-anchor="middle" fill="#000" stroke="#fff" stroke-width="2.5" paint-order="stroke">5.15 m2</text><rect x="59.8" y="554.6" width="133.1" height="56.1" fill="#fff" stroke="#000" stroke-width="1.2"/><text x="126.3" y="574.6" font-size="10" text-anchor="middle" fill="#000" stroke="#fff" stroke-width="2.5" paint-order="stroke">WC</text><text x="126.3" y="586.6" font-size="10" text-anchor="middle" fill="#000" stroke="#fff" stroke-width="2.5" paint-order="stroke">2420×1020 mm</text><text x="126.3" y="598.6" font-size="10" text-anchor="middle" fill="#000" stroke="#fff" stroke-width="2.5" paint-order="stroke">2.47 m2</text><rect x="59.8" y="616.2" width="152.3" height="149.6" fill="#fff" stroke="#000" stroke-width="1.2"/><text x="135.9" y="683.0" font-size="10" text-anchor="middle" fill="#000" stroke="#fff" stroke-width="2.5" paint-order="stroke">Bedroom 3</text><text x="135.9" y="695.0" font-size="10" text-anchor="middle" fill="#000" stroke="#fff" stroke-width="2.5" paint-order="stroke">2770×2720 mm</text><text x="135.9" y="707.0" font-size="10" text-anchor="middle" fill="#000" stroke="#fff" stroke-width="2.5" paint-order="stroke">7.53 m2</text><rect x="59.8" y="771.3" width="212.8" height="163.3" fill="#fff" stroke="#000" stroke-width="1.2"/><text x="166.2" y="845.0" font-size="10" text-anchor="middle" fill="#000" stroke="#fff" stroke-width="2.5" paint-order="stroke">Bedroom 2</text><text x="166.2" y="857.0" font-size="10" text-anchor="middle" fill="#000" stroke="#fff" stroke-width="2.5" paint-order="stroke">3870×2970 mm</text><text x="166.2" y="869.0" font-size="10" text-anchor="middle" fill="#000" stroke="#fff" stroke-width="2.5" paint-order="stroke">11.49 m2</text><rect x="59.8" y="940.1" width="212.8" height="210.1" fill="#fff" stroke="#000" stroke-width="1.2"/><text x="166.2" y="1037.2" font-size="10" text-anchor="middle" fill="#000" stroke="#fff" stroke-width="2.5" paint-order="stroke">Master</text><text x="166.2" y="1049.2" font-size="10" text-anchor="middle" fill="#000" stroke="#fff" stroke-width="2.5" paint-order="stroke">3870×3820 mm</text><text x="166.2" y="1061.2" font-size="10" text-anchor="middle" fill="#000" stroke="#fff" stroke-width="2.5" paint-order="stroke">14.78 m2</text><rect x="59.8" y="1155.8" width="99.0" height="132.0" fill="#fff" stroke="#000" stroke-width="1.2"/><text x="109.3" y="1213.8" font-size="10" text-anchor="middle" fill="#000" stroke="#fff" stroke-width="2.5" paint-order="stroke">Ensuite</text><text x="109.3" y="1225.8" font-size="10" text-anchor="middle" fill="#000" stroke="#fff" stroke-width="2.5" paint-order="stroke">1800×2400 mm</text><text x="109.3" y="1237.8" font-size="10" text-anchor="middle" fill="#000" stroke="#fff" stroke-width="2.5" paint-order="stroke">4.32 m2</text><rect x="164.3" y="1155.8" width="108.3" height="132.0" fill="#fff" stroke="#000" stroke-width="1.2"/><text x="218.4" y="1213.8" font-size="10" text-anchor="middle" fill="#000" stroke="#fff" stroke-width="2.5" paint-order="stroke">WIR</text><text x="218.4" y="1225.8" font-size="10" text-anchor="middle" fill="#000" stroke="#fff" stroke-width="2.5" paint-order="stroke">1970×2400 mm</text><text x="218.4" y="1237.8" font-size="10" text-anchor="middle" fill="#000" stroke="#fff" stroke-width="2.5" paint-order="stroke">4.73 m2</text><rect x="338.6" y="431.9" width="337.1" height="189.2" fill="#fff" stroke="#000" stroke-width="1.2"/><text x="507.2" y="518.5" font-size="10" text-anchor="middle" fill="#000" stroke="#fff" stroke-width="2.5" paint-order="stroke">Alfresco</text><text x="507.2" y="530.5" font-size="10" text-anchor="middle" fill="#000" stroke="#fff" stroke-width="2.5" paint-order="stroke">6130×3440 mm</text><text x="507.2" y="542.5" font-size="10" text-anchor="middle" fill="#000" stroke="#fff" stroke-width="2.5" paint-order="stroke">21.09 m2</text><rect x="338.6" y="626.6" width="337.1" height="293.1" fill="#fff" stroke="#000" stroke-width="1.2"/><text x="507.2" y="765.2" font-size="10" text-anchor="middle" fill="#000" stroke="#fff" stroke-width="2.5" paint-order="stroke">Family Core</text><text x="507.2" y="777.2" font-size="10" text-anchor="middle" fill="#000" stroke="#fff" stroke-width="2.5" paint-order="stroke">6130×5330 mm</text><text x="507.2" y="789.2" font-size="10" text-anchor="middle" fill="#000" stroke="#fff" stroke-width="2.5" paint-order="stroke">32.67 m2</text><rect x="338.6" y="925.3" width="337.1" height="362.4" fill="#fff" stroke="#000" stroke-width="1.2"/><text x="507.2" y="1098.5" font-size="10" text-anchor="middle" fill="#000" stroke="#fff" stroke-width="2.5" paint-order="stroke">Double Garage</text><text x="507.2" y="1110.5" font-size="10" text-anchor="middle" fill="#000" stroke="#fff" stroke-width="2.5" paint-order="stroke">6130×6590 mm</text><text x="507.2" y="1122.5" font-size="10" text-anchor="middle" fill="#000" stroke="#fff" stroke-width="2.5" paint-order="stroke">40.40 m2</text><rect x="46.0" y="418.2" width="643.5" height="13.8" fill="#222" stroke="#222" stroke-width="0.5"/><rect x="46.0" y="1287.8" width="643.5" height="13.8" fill="#222" stroke="#222" stroke-width="0.5"/><rect x="46.0" y="431.9" width="13.8" height="855.8" fill="#222" stroke="#222" stroke-width="0.5"/><rect x="675.8" y="431.9" width="13.8" height="855.8" fill="#222" stroke="#222" stroke-width="0.5"/><rect x="192.8" y="431.9" width="5.5" height="184.3" fill="#222" stroke="#222" stroke-width="0.5"/><rect x="212.1" y="610.7" width="5.5" height="160.6" fill="#222" stroke="#222" stroke-width="0.5"/><rect x="272.6" y="610.7" width="5.5" height="5.5" fill="#222" stroke="#222" stroke-width="0.5"/><rect x="272.6" y="765.8" width="5.5" height="522.0" fill="#222" stroke="#222" stroke-width="0.5"/><rect x="158.8" y="1150.3" width="5.5" height="137.5" fill="#222" stroke="#222" stroke-width="0.5"/><rect x="333.1" y="431.9" width="5.5" height="855.8" fill="#222" stroke="#222" stroke-width="0.5"/><rect x="59.8" y="549.1" width="138.6" height="5.5" fill="#222" stroke="#222" stroke-width="0.5"/><rect x="59.8" y="610.7" width="157.8" height="5.5" fill="#222" stroke="#222" stroke-width="0.5"/><rect x="59.8" y="765.8" width="218.3" height="5.5" fill="#222" stroke="#222" stroke-width="0.5"/><rect x="59.8" y="934.6" width="218.3" height="5.5" fill="#222" stroke="#222" stroke-width="0.5"/><rect x="59.8" y="1150.3" width="218.3" height="5.5" fill="#222" stroke="#222" stroke-width="0.5"/><rect x="333.1" y="621.1" width="342.6" height="5.5" fill="#222" stroke="#222" stroke-width="0.5"/><rect x="333.1" y="919.8" width="342.6" height="5.5" fill="#222" stroke="#222" stroke-width="0.5"/><rect x="192.8" y="450.1" width="5.5" height="45.1" fill="#fff" stroke="none"/><path d="M195.6 450.1 L150.5 450.1 M195.6 495.2 A45.1 45.1 0 0 1 150.5 450.1" fill="none" stroke="#000" stroke-width="0.9"/><rect x="192.8" y="560.1" width="5.5" height="45.1" fill="#fff" stroke="none"/><path d="M195.6 560.1 L150.5 560.1 M195.6 605.2 A45.1 45.1 0 0 1 150.5 560.1" fill="none" stroke="#000" stroke-width="0.9"/><rect x="212.1" y="662.4" width="5.5" height="45.1" fill="#fff" stroke="none"/><path d="M214.8 662.4 L169.8 662.4 M214.8 707.5 A45.1 45.1 0 0 1 169.8 662.4" fill="none" stroke="#000" stroke-width="0.9"/><rect x="272.6" y="788.4" width="5.5" height="45.1" fill="#fff" stroke="none"/><path d="M275.4 788.4 L230.3 788.4 M275.4 833.5 A45.1 45.1 0 0 1 230.3 788.4" fill="none" stroke="#000" stroke-width="0.9"/><rect x="272.6" y="1061.2" width="5.5" height="45.1" fill="#fff" stroke="none"/><path d="M275.4 1061.2 L230.3 1061.2 M275.4 1106.3 A45.1 45.1 0 0 1 230.3 1061.2" fill="none" stroke="#000" stroke-width="0.9"/><rect x="158.8" y="1225.0" width="5.5" height="45.1" fill="#fff" stroke="none"/><path d="M161.5 1225.0 L116.4 1225.0 M161.5 1270.1 A45.1 45.1 0 0 1 116.4 1225.0" fill="none" stroke="#000" stroke-width="0.9"/><rect x="206.1" y="1150.3" width="45.1" height="5.5" fill="#fff" stroke="none"/><path d="M206.1 1153.0 L206.1 1198.1 M251.2 1153.0 A45.1 45.1 0 0 1 206.1 1198.1" fill="none" stroke="#000" stroke-width="0.9"/><rect x="344.1" y="621.1" width="45.1" height="5.5" fill="#fff" stroke="none"/><path d="M344.1 623.9 L344.1 578.8 M389.2 623.9 A45.1 45.1 0 0 0 344.1 578.8" fill="none" stroke="#000" stroke-width="0.9"/><rect x="333.1" y="672.9" width="5.5" height="45.1" fill="#fff" stroke="none"/><path d="M335.9 672.9 L381.0 672.9 M335.9 718.0 A45.1 45.1 0 0 0 381.0 672.9" fill="none" stroke="#000" stroke-width="0.9"/><rect x="333.1" y="1230.0" width="5.5" height="45.1" fill="#fff" stroke="none"/><path d="M335.9 1230.0 L381.0 1230.0 M335.9 1275.1 A45.1 45.1 0 0 0 381.0 1230.0" fill="none" stroke="#000" stroke-width="0.9"/><rect x="280.3" y="1287.8" width="50.6" height="13.8" fill="#fff" stroke="none"/><rect x="280.3" y="1287.8" width="50.6" height="13.8" fill="#fff" stroke="#000" stroke-width="0.8" stroke-dasharray="4 3"/><text x="305.6" y="1312.5" font-size="9" text-anchor="middle">FRONT DOOR 920</text><rect x="375.2" y="1287.8" width="264.0" height="13.8" fill="#fff" stroke="none"/><rect x="375.2" y="1287.8" width="264.0" height="13.8" fill="#fff" stroke="#000" stroke-width="0.8" stroke-dasharray="4 3"/><text x="507.2" y="1312.5" font-size="9" text-anchor="middle">VEHICLE OPENING 4800</text><text x="24" y="146" font-size="10">Stage 6: wall bands (exterior 250, interior 100 mm, shared walls drawn once), doors, final hallway segments (links absorb the stage-4 bays).</text><text x="24" y="1334" font-size="11" font-weight="bold">Legend (no colour is used: read the labels)</text><rect x="24" y="1340" width="34" height="12" fill="url(#hall)" stroke="#000" stroke-width="1"/><text x="64" y="1350" font-size="10">Hallway strip / Entry (diagonal hatch)</text><rect x="204" y="1340" width="34" height="12" fill="#222"/><text x="244" y="1350" font-size="10">Wall band (black)</text><rect x="384" y="1340" width="34" height="12" fill="url(#flex)" stroke="#000" stroke-width="1"/><text x="424" y="1350" font-size="10">Flex patch (cross hatch)</text><path d="M564 1348 h26 M564 1348 a26 26 0 0 1 26 -26" stroke="#000" fill="none" stroke-width="1"/><text x="604" y="1350" font-size="10">Door gap with swing arc (820 clear)</text><text x="24" y="1430" font-size="10">FRONT edge is the bottom of the drawing: Entry and the Garage vehicle opening sit on it.</text></svg>