<svg xmlns="http://www.w3.org/2000/svg" width="736" height="1438" viewBox="0 0 736 1438" font-family="Arial, Helvetica, sans-serif"><rect width="100%" height="100%" fill="#fff"/><defs>
<pattern id="hall" width="8" height="8" patternUnits="userSpaceOnUse" patternTransform="rotate(45)"><rect width="8" height="8" fill="#fff"/><line x1="0" y1="0" x2="0" y2="8" stroke="#555" stroke-width="1.4"/></pattern>
<pattern id="flex" width="9" height="9" patternUnits="userSpaceOnUse"><rect width="9" height="9" fill="#fff"/><path d="M0 0L9 9M9 0L0 9" stroke="#666" stroke-width="1"/></pattern>
<pattern id="wall" width="4" height="4" patternUnits="userSpaceOnUse"><rect width="4" height="4" fill="#222"/></pattern>
</defs><text x="24" y="30" font-size="12" font-weight="bold" fill="#000">GB-01 without Alfresco (D63) | T3 rear-master-core-wide | seed 1 | provisional</text><text x="24" y="44" font-size="11" font-weight="normal" fill="#000">GB-01 (D59 fourth reference plan, CF-01 style) WITHOUT the Alfresco (D63)   |   candidate 1-0   |   STAGE 6 of the real generator output</text><text x="24" y="58" font-size="11" font-weight="normal" fill="#000">seed 1   |   strategy seed T3-rear-master   |   hallway shape: spine</text><text x="24" y="72" font-size="11" font-weight="normal" fill="#000">FINAL VALIDATION (stage 6, independent validator): VALID, all 19 rules pass</text><text x="24" y="86" font-size="11" font-weight="normal" fill="#000">footprint (outside face) 12500×17200 mm = 215.00 m2 | envelope max 12500×20500</text><text x="24" y="100" font-size="11" font-weight="normal" fill="#000">room area 149.50 m2 | hallway area 22.93 m2 (reported separately) | flex 21.00 m2</text><text x="24" y="114" font-size="11" font-weight="normal" fill="#000">All sizes are clear internal dimensions in mm unless marked. Provisional - uncalibrated (G-CALIBRATION).</text><rect x="24" y="174" width="687.5" height="1127.5" fill="none" stroke="#000" stroke-width="0.8" stroke-dasharray="1 5"/><text x="28" y="186" font-size="9">envelope max 12500×20500 (dotted)</text><rect x="428.3" y="1216.3" width="60.5" height="71.5" fill="url(#hall)" stroke="#000" stroke-width="1.2"/><text x="458.5" y="1250.0" font-size="9" text-anchor="middle" fill="#000" stroke="#fff" stroke-width="2.5" paint-order="stroke">ENTRY</text><text x="458.5" y="1261.0" font-size="9" text-anchor="middle" fill="#000" stroke="#fff" stroke-width="2.5" paint-order="stroke">1100×1300</text><rect x="428.3" y="369.3" width="60.5" height="847.0" fill="url(#hall)" stroke="#000" stroke-width="1.2"/><text x="458.5" y="790.8" font-size="9" text-anchor="middle" fill="#000" stroke="#fff" stroke-width="2.5" paint-order="stroke">Hallway</text><text x="458.5" y="801.8" font-size="9" text-anchor="middle" fill="#000" stroke="#fff" stroke-width="2.5" paint-order="stroke">1100×15400</text><rect x="494.3" y="1051.3" width="203.5" height="66.0" fill="url(#hall)" stroke="#000" stroke-width="1.2"/><text x="596.0" y="1082.3" font-size="9" text-anchor="middle" fill="#000" stroke="#fff" stroke-width="2.5" paint-order="stroke">Hallway link</text><text x="596.0" y="1093.3" font-size="9" text-anchor="middle" fill="#000" stroke="#fff" stroke-width="2.5" paint-order="stroke">3700×1200</text><rect x="464.0" y="1051.3" width="55.0" height="66.0" fill="url(#hall)" stroke="#000" stroke-width="1.2"/><text x="491.5" y="1082.3" font-size="9" text-anchor="middle" fill="#000" stroke="#fff" stroke-width="2.5" paint-order="stroke">Hallway link</text><text x="491.5" y="1093.3" font-size="9" text-anchor="middle" fill="#000" stroke="#fff" stroke-width="2.5" paint-order="stroke">1000×1200</text><rect x="494.3" y="1122.8" width="203.5" height="165.0" fill="#fff" stroke="#000" stroke-width="1.2"/><text x="596.0" y="1197.3" font-size="10" text-anchor="middle" fill="#000" stroke="#fff" stroke-width="2.5" paint-order="stroke">Bedroom 2</text><text x="596.0" y="1209.3" font-size="10" text-anchor="middle" fill="#000" stroke="#fff" stroke-width="2.5" paint-order="stroke">3700×3000 mm</text><text x="596.0" y="1221.3" font-size="10" text-anchor="middle" fill="#000" stroke="#fff" stroke-width="2.5" paint-order="stroke">11.10 m2</text><rect x="561.4" y="902.8" width="136.4" height="143.0" fill="#fff" stroke="#000" stroke-width="1.2"/><text x="629.6" y="966.3" font-size="10" text-anchor="middle" fill="#000" stroke="#fff" stroke-width="2.5" paint-order="stroke">Shared Bathroom</text><text x="629.6" y="978.3" font-size="10" text-anchor="middle" fill="#000" stroke="#fff" stroke-width="2.5" paint-order="stroke">2480×2600 mm</text><text x="629.6" y="990.3" font-size="10" text-anchor="middle" fill="#000" stroke="#fff" stroke-width="2.5" paint-order="stroke">6.45 m2</text><rect x="494.3" y="902.8" width="61.6" height="143.0" fill="#fff" stroke="#000" stroke-width="1.2"/><text x="525.0" y="967.3" font-size="8" text-anchor="middle" fill="#000" stroke="#fff" stroke-width="2.5" paint-order="stroke">WC</text><text x="525.0" y="977.3" font-size="8" text-anchor="middle" fill="#000" stroke="#fff" stroke-width="2.5" paint-order="stroke">1120×2600 mm</text><text x="525.0" y="987.3" font-size="8" text-anchor="middle" fill="#000" stroke="#fff" stroke-width="2.5" paint-order="stroke">2.91 m2</text><rect x="494.3" y="732.3" width="203.5" height="165.0" fill="#fff" stroke="#000" stroke-width="1.2"/><text x="596.0" y="806.8" font-size="10" text-anchor="middle" fill="#000" stroke="#fff" stroke-width="2.5" paint-order="stroke">Bedroom 3</text><text x="596.0" y="818.8" font-size="10" text-anchor="middle" fill="#000" stroke="#fff" stroke-width="2.5" paint-order="stroke">3700×3000 mm</text><text x="596.0" y="830.8" font-size="10" text-anchor="middle" fill="#000" stroke="#fff" stroke-width="2.5" paint-order="stroke">11.10 m2</text><rect x="494.3" y="369.3" width="203.5" height="220.0" fill="#fff" stroke="#000" stroke-width="1.2"/><text x="596.0" y="471.3" font-size="10" text-anchor="middle" fill="#000" stroke="#fff" stroke-width="2.5" paint-order="stroke">Master</text><text x="596.0" y="483.3" font-size="10" text-anchor="middle" fill="#000" stroke="#fff" stroke-width="2.5" paint-order="stroke">3700×4000 mm</text><text x="596.0" y="495.3" font-size="10" text-anchor="middle" fill="#000" stroke="#fff" stroke-width="2.5" paint-order="stroke">14.80 m2</text><rect x="598.8" y="594.8" width="99.0" height="132.0" fill="#fff" stroke="#000" stroke-width="1.2"/><text x="648.3" y="652.8" font-size="10" text-anchor="middle" fill="#000" stroke="#fff" stroke-width="2.5" paint-order="stroke">WIR</text><text x="648.3" y="664.8" font-size="10" text-anchor="middle" fill="#000" stroke="#fff" stroke-width="2.5" paint-order="stroke">1800×2400 mm</text><text x="648.3" y="676.8" font-size="10" text-anchor="middle" fill="#000" stroke="#fff" stroke-width="2.5" paint-order="stroke">4.32 m2</text><rect x="494.3" y="594.8" width="99.0" height="132.0" fill="#fff" stroke="#000" stroke-width="1.2"/><text x="543.8" y="652.8" font-size="10" text-anchor="middle" fill="#000" stroke="#fff" stroke-width="2.5" paint-order="stroke">Ensuite</text><text x="543.8" y="664.8" font-size="10" text-anchor="middle" fill="#000" stroke="#fff" stroke-width="2.5" paint-order="stroke">1800×2400 mm</text><text x="543.8" y="676.8" font-size="10" text-anchor="middle" fill="#000" stroke="#fff" stroke-width="2.5" paint-order="stroke">4.32 m2</text><rect x="37.8" y="902.8" width="385.0" height="385.0" fill="#fff" stroke="#000" stroke-width="1.2"/><text x="230.3" y="1087.3" font-size="10" text-anchor="middle" fill="#000" stroke="#fff" stroke-width="2.5" paint-order="stroke">Double Garage</text><text x="230.3" y="1099.3" font-size="10" text-anchor="middle" fill="#000" stroke="#fff" stroke-width="2.5" paint-order="stroke">7000×7000 mm</text><text x="230.3" y="1111.3" font-size="10" text-anchor="middle" fill="#000" stroke="#fff" stroke-width="2.5" paint-order="stroke">49.00 m2</text><rect x="37.8" y="539.8" width="385.0" height="357.5" fill="#fff" stroke="#000" stroke-width="1.2"/><text x="230.3" y="710.5" font-size="10" text-anchor="middle" fill="#000" stroke="#fff" stroke-width="2.5" paint-order="stroke">Family Core</text><text x="230.3" y="722.5" font-size="10" text-anchor="middle" fill="#000" stroke="#fff" stroke-width="2.5" paint-order="stroke">7000×6500 mm</text><text x="230.3" y="734.5" font-size="10" text-anchor="middle" fill="#000" stroke="#fff" stroke-width="2.5" paint-order="stroke">45.50 m2</text><rect x="37.8" y="369.3" width="385.0" height="165.0" fill="url(#flex)" stroke="#000" stroke-width="1.2"/><text x="230.3" y="443.8" font-size="10" text-anchor="middle" fill="#000" stroke="#fff" stroke-width="2.5" paint-order="stroke">FLEX</text><text x="230.3" y="455.8" font-size="10" text-anchor="middle" fill="#000" stroke="#fff" stroke-width="2.5" paint-order="stroke">7000×3000 mm</text><text x="230.3" y="467.8" font-size="10" text-anchor="middle" fill="#000" stroke="#fff" stroke-width="2.5" paint-order="stroke">21.00 m2</text><rect x="24.0" y="355.5" width="687.5" height="13.8" fill="#222" stroke="#222" stroke-width="0.5"/><rect x="24.0" y="1287.8" width="687.5" height="13.8" fill="#222" stroke="#222" stroke-width="0.5"/><rect x="24.0" y="369.3" width="13.8" height="918.5" fill="#222" stroke="#222" stroke-width="0.5"/><rect x="697.8" y="369.3" width="13.8" height="918.5" fill="#222" stroke="#222" stroke-width="0.5"/><rect x="488.8" y="369.3" width="5.5" height="682.0" fill="#222" stroke="#222" stroke-width="0.5"/><rect x="488.8" y="1117.3" width="5.5" height="170.5" fill="#222" stroke="#222" stroke-width="0.5"/><rect x="555.9" y="897.3" width="5.5" height="154.0" fill="#222" stroke="#222" stroke-width="0.5"/><rect x="593.3" y="589.3" width="5.5" height="143.0" fill="#222" stroke="#222" stroke-width="0.5"/><rect x="422.8" y="369.3" width="5.5" height="918.5" fill="#222" stroke="#222" stroke-width="0.5"/><rect x="488.8" y="1117.3" width="209.0" height="5.5" fill="#222" stroke="#222" stroke-width="0.5"/><rect x="37.8" y="897.3" width="390.5" height="5.5" fill="#222" stroke="#222" stroke-width="0.5"/><rect x="488.8" y="897.3" width="209.0" height="5.5" fill="#222" stroke="#222" stroke-width="0.5"/><rect x="488.8" y="1045.8" width="209.0" height="5.5" fill="#222" stroke="#222" stroke-width="0.5"/><rect x="488.8" y="726.8" width="209.0" height="5.5" fill="#222" stroke="#222" stroke-width="0.5"/><rect x="488.8" y="589.3" width="209.0" height="5.5" fill="#222" stroke="#222" stroke-width="0.5"/><rect x="37.8" y="534.3" width="390.5" height="5.5" fill="#222" stroke="#222" stroke-width="0.5"/><rect x="573.5" y="1117.3" width="45.1" height="5.5" fill="#fff" stroke="none"/><path d="M573.5 1120.0 L573.5 1165.1 M618.6 1120.0 A45.1 45.1 0 0 1 573.5 1165.1" fill="none" stroke="#000" stroke-width="0.9"/><rect x="607.0" y="1045.8" width="45.1" height="5.5" fill="#fff" stroke="none"/><path d="M607.0 1048.5 L607.0 1003.4 M652.1 1048.5 A45.1 45.1 0 0 0 607.0 1003.4" fill="none" stroke="#000" stroke-width="0.9"/><rect x="488.8" y="951.7" width="5.5" height="45.1" fill="#fff" stroke="none"/><path d="M491.5 951.7 L536.6 951.7 M491.5 996.8 A45.1 45.1 0 0 0 536.6 951.7" fill="none" stroke="#000" stroke-width="0.9"/><rect x="488.8" y="792.2" width="5.5" height="45.1" fill="#fff" stroke="none"/><path d="M491.5 792.2 L536.6 792.2 M491.5 837.3 A45.1 45.1 0 0 0 536.6 792.2" fill="none" stroke="#000" stroke-width="0.9"/><rect x="488.8" y="456.7" width="5.5" height="45.1" fill="#fff" stroke="none"/><path d="M491.5 456.7 L536.6 456.7 M491.5 501.8 A45.1 45.1 0 0 0 536.6 456.7" fill="none" stroke="#000" stroke-width="0.9"/><rect x="625.7" y="589.3" width="45.1" height="5.5" fill="#fff" stroke="none"/><path d="M625.7 592.0 L625.7 637.1 M670.8 592.0 A45.1 45.1 0 0 1 625.7 637.1" fill="none" stroke="#000" stroke-width="0.9"/><rect x="593.3" y="638.2" width="5.5" height="45.1" fill="#fff" stroke="none"/><path d="M596.0 638.2 L550.9 638.2 M596.0 683.3 A45.1 45.1 0 0 1 550.9 638.2" fill="none" stroke="#000" stroke-width="0.9"/><rect x="422.8" y="1037.0" width="5.5" height="45.1" fill="#fff" stroke="none"/><path d="M425.5 1037.0 L380.4 1037.0 M425.5 1082.0 A45.1 45.1 0 0 1 380.4 1037.0" fill="none" stroke="#000" stroke-width="0.9"/><rect x="422.8" y="429.2" width="5.5" height="45.1" fill="#fff" stroke="none"/><path d="M425.5 429.2 L380.4 429.2 M425.5 474.3 A45.1 45.1 0 0 1 380.4 429.2" fill="none" stroke="#000" stroke-width="0.9"/><rect x="422.8" y="652.5" width="5.5" height="132.0" fill="#fff" stroke="none"/><path d="M425.5 652.5 L557.5 652.5 M425.5 784.5 A132.0 132.0 0 0 0 557.5 652.5" fill="none" stroke="#000" stroke-width="0.9"/><rect x="433.2" y="1287.8" width="50.6" height="13.8" fill="#fff" stroke="none"/><rect x="433.2" y="1287.8" width="50.6" height="13.8" fill="#fff" stroke="#000" stroke-width="0.8" stroke-dasharray="4 3"/><text x="458.5" y="1312.5" font-size="9" text-anchor="middle">FRONT DOOR 920</text><rect x="98.3" y="1287.8" width="264.0" height="13.8" fill="#fff" stroke="none"/><rect x="98.3" y="1287.8" width="264.0" height="13.8" fill="#fff" stroke="#000" stroke-width="0.8" stroke-dasharray="4 3"/><text x="230.3" y="1312.5" font-size="9" text-anchor="middle">VEHICLE OPENING 4800</text><text x="24" y="146" font-size="10">Stage 6: wall bands (exterior 250, interior 100 mm, shared walls drawn once), doors, final hallway segments (links absorb the stage-4 bays).</text><text x="24" y="1334" font-size="11" font-weight="bold">Legend (no colour is used: read the labels)</text><rect x="24" y="1340" width="34" height="12" fill="url(#hall)" stroke="#000" stroke-width="1"/><text x="64" y="1350" font-size="10">Hallway strip / Entry (diagonal hatch)</text><rect x="204" y="1340" width="34" height="12" fill="#222"/><text x="244" y="1350" font-size="10">Wall band (black)</text><rect x="384" y="1340" width="34" height="12" fill="url(#flex)" stroke="#000" stroke-width="1"/><text x="424" y="1350" font-size="10">Flex patch (cross hatch)</text><path d="M564 1348 h26 M564 1348 a26 26 0 0 1 26 -26" stroke="#000" fill="none" stroke-width="1"/><text x="604" y="1350" font-size="10">Door gap with swing arc (820 clear)</text><text x="24" y="1430" font-size="10">FRONT edge is the bottom of the drawing: Entry and the Garage vehicle opening sit on it.</text></svg>