<svg xmlns="http://www.w3.org/2000/svg" width="791" height="1438" viewBox="0 0 791 1438" font-family="Arial, Helvetica, sans-serif"><rect width="100%" height="100%" fill="#fff"/><defs>
<pattern id="hall" width="8" height="8" patternUnits="userSpaceOnUse" patternTransform="rotate(45)"><rect width="8" height="8" fill="#fff"/><line x1="0" y1="0" x2="0" y2="8" stroke="#555" stroke-width="1.4"/></pattern>
<pattern id="flex" width="9" height="9" patternUnits="userSpaceOnUse"><rect width="9" height="9" fill="#fff"/><path d="M0 0L9 9M9 0L0 9" stroke="#666" stroke-width="1"/></pattern>
<pattern id="wall" width="4" height="4" patternUnits="userSpaceOnUse"><rect width="4" height="4" fill="#222"/></pattern>
</defs><text x="24" y="30" font-size="12" font-weight="bold" fill="#000">WHAT-IF: envelope width 13500 (not the PL-10 envelope 12500; needs-human calibration) | retained valid candidate 1 of 6</text><text x="24" y="44" font-size="11" font-weight="normal" fill="#000">GB-01 (D59 fourth reference plan, CF-01 style) [WHAT-IF: envelope width 13500 (not the PL-10 envelope 12500; needs-human calibration)]   |   candidate 1-378550   |   STAGE 6 of the real generator output</text><text x="24" y="58" font-size="11" font-weight="normal" fill="#000">seed 1   |   strategy seed CF-01   |   hallway shape: spine</text><text x="24" y="72" font-size="11" font-weight="normal" fill="#000">FINAL VALIDATION (stage 6, independent validator): VALID, all 17 rules pass</text><text x="24" y="86" font-size="11" font-weight="normal" fill="#000">footprint (outside face) 12320×15910 mm = 196.01 m2 | envelope max 13500×20500</text><text x="24" y="100" font-size="11" font-weight="normal" fill="#000">room area 156.71 m2 | hallway area 18.98 m2 (reported separately) | flex 0.00 m2</text><text x="24" y="114" font-size="11" font-weight="normal" fill="#000">All sizes are clear internal dimensions in mm unless marked. Provisional - uncalibrated (G-CALIBRATION).</text><rect x="24" y="174" width="742.5" height="1127.5" fill="none" stroke="#000" stroke-width="0.8" stroke-dasharray="1 5"/><text x="28" y="186" font-size="9">envelope max 13500×20500 (dotted)</text><rect x="456.3" y="440.2" width="55.0" height="781.5" fill="url(#hall)" stroke="#000" stroke-width="1.2"/><text x="483.8" y="829.0" font-size="9" text-anchor="middle" fill="#000" stroke="#fff" stroke-width="2.5" paint-order="stroke">Hallway strip</text><text x="483.8" y="840.0" font-size="9" text-anchor="middle" fill="#000" stroke="#fff" stroke-width="2.5" paint-order="stroke">1000×14210</text><rect x="456.3" y="1221.8" width="55.0" height="66.0" fill="url(#hall)" stroke="#000" stroke-width="1.2"/><text x="483.8" y="1252.8" font-size="9" text-anchor="middle" fill="#000" stroke="#fff" stroke-width="2.5" paint-order="stroke">ENTRY</text><text x="483.8" y="1263.8" font-size="9" text-anchor="middle" fill="#000" stroke="#fff" stroke-width="2.5" paint-order="stroke">1000×1200</text><rect x="516.8" y="790.0" width="55.0" height="178.8" fill="url(#hall)" stroke="#000" stroke-width="1.2"/><text x="544.3" y="877.4" font-size="9" text-anchor="middle" fill="#000" stroke="#fff" stroke-width="2.5" paint-order="stroke">Hallway widening (slack)</text><text x="544.3" y="888.4" font-size="9" text-anchor="middle" fill="#000" stroke="#fff" stroke-width="2.5" paint-order="stroke">1000×3250</text><rect x="486.6" y="790.0" width="55.0" height="178.8" fill="url(#hall)" stroke="#000" stroke-width="1.2"/><text x="514.0" y="877.4" font-size="9" text-anchor="middle" fill="#000" stroke="#fff" stroke-width="2.5" paint-order="stroke">Hallway link</text><text x="514.0" y="888.4" font-size="9" text-anchor="middle" fill="#000" stroke="#fff" stroke-width="2.5" paint-order="stroke">1000×3250</text><rect x="70.2" y="440.2" width="380.6" height="212.8" fill="#fff" stroke="#000" stroke-width="1.2"/><text x="260.5" y="538.6" font-size="10" text-anchor="middle" fill="#000" stroke="#fff" stroke-width="2.5" paint-order="stroke">Alfresco</text><text x="260.5" y="550.6" font-size="10" text-anchor="middle" fill="#000" stroke="#fff" stroke-width="2.5" paint-order="stroke">6920×3870 mm</text><text x="260.5" y="562.6" font-size="10" text-anchor="middle" fill="#000" stroke="#fff" stroke-width="2.5" paint-order="stroke">26.78 m2</text><rect x="70.2" y="658.5" width="380.6" height="299.2" fill="#fff" stroke="#000" stroke-width="1.2"/><text x="260.5" y="800.1" font-size="10" text-anchor="middle" fill="#000" stroke="#fff" stroke-width="2.5" paint-order="stroke">Family Core</text><text x="260.5" y="812.1" font-size="10" text-anchor="middle" fill="#000" stroke="#fff" stroke-width="2.5" paint-order="stroke">6920×5440 mm</text><text x="260.5" y="824.1" font-size="10" text-anchor="middle" fill="#000" stroke="#fff" stroke-width="2.5" paint-order="stroke">37.64 m2</text><rect x="70.2" y="963.3" width="380.6" height="324.5" fill="#fff" stroke="#000" stroke-width="1.2"/><text x="260.5" y="1117.5" font-size="10" text-anchor="middle" fill="#000" stroke="#fff" stroke-width="2.5" paint-order="stroke">Double Garage</text><text x="260.5" y="1129.5" font-size="10" text-anchor="middle" fill="#000" stroke="#fff" stroke-width="2.5" paint-order="stroke">6920×5900 mm</text><text x="260.5" y="1141.5" font-size="10" text-anchor="middle" fill="#000" stroke="#fff" stroke-width="2.5" paint-order="stroke">40.83 m2</text><rect x="516.8" y="440.2" width="203.5" height="167.8" fill="#fff" stroke="#000" stroke-width="1.2"/><text x="618.5" y="516.1" font-size="10" text-anchor="middle" fill="#000" stroke="#fff" stroke-width="2.5" paint-order="stroke">Bedroom 2</text><text x="618.5" y="528.1" font-size="10" text-anchor="middle" fill="#000" stroke="#fff" stroke-width="2.5" paint-order="stroke">3700×3050 mm</text><text x="618.5" y="540.1" font-size="10" text-anchor="middle" fill="#000" stroke="#fff" stroke-width="2.5" paint-order="stroke">11.29 m2</text><rect x="516.8" y="613.5" width="203.5" height="171.1" fill="#fff" stroke="#000" stroke-width="1.2"/><text x="618.5" y="691.0" font-size="10" text-anchor="middle" fill="#000" stroke="#fff" stroke-width="2.5" paint-order="stroke">Bedroom 3</text><text x="618.5" y="703.0" font-size="10" text-anchor="middle" fill="#000" stroke="#fff" stroke-width="2.5" paint-order="stroke">3700×3110 mm</text><text x="618.5" y="715.0" font-size="10" text-anchor="middle" fill="#000" stroke="#fff" stroke-width="2.5" paint-order="stroke">11.51 m2</text><rect x="577.3" y="790.0" width="143.0" height="110.5" fill="#fff" stroke="#000" stroke-width="1.2"/><text x="648.8" y="837.3" font-size="10" text-anchor="middle" fill="#000" stroke="#fff" stroke-width="2.5" paint-order="stroke">Shared Bathroom</text><text x="648.8" y="849.3" font-size="10" text-anchor="middle" fill="#000" stroke="#fff" stroke-width="2.5" paint-order="stroke">2600×2010 mm</text><text x="648.8" y="861.3" font-size="10" text-anchor="middle" fill="#000" stroke="#fff" stroke-width="2.5" paint-order="stroke">5.23 m2</text><rect x="577.3" y="906.0" width="143.0" height="62.7" fill="#fff" stroke="#000" stroke-width="1.2"/><text x="648.8" y="929.4" font-size="10" text-anchor="middle" fill="#000" stroke="#fff" stroke-width="2.5" paint-order="stroke">WC</text><text x="648.8" y="941.4" font-size="10" text-anchor="middle" fill="#000" stroke="#fff" stroke-width="2.5" paint-order="stroke">2600×1140 mm</text><text x="648.8" y="953.4" font-size="10" text-anchor="middle" fill="#000" stroke="#fff" stroke-width="2.5" paint-order="stroke">2.96 m2</text><rect x="516.8" y="974.3" width="203.5" height="170.5" fill="#fff" stroke="#000" stroke-width="1.2"/><text x="618.5" y="1051.5" font-size="10" text-anchor="middle" fill="#000" stroke="#fff" stroke-width="2.5" paint-order="stroke">Master</text><text x="618.5" y="1063.5" font-size="10" text-anchor="middle" fill="#000" stroke="#fff" stroke-width="2.5" paint-order="stroke">3700×3100 mm</text><text x="618.5" y="1075.5" font-size="10" text-anchor="middle" fill="#000" stroke="#fff" stroke-width="2.5" paint-order="stroke">11.47 m2</text><rect x="516.8" y="1150.3" width="99.0" height="137.5" fill="#fff" stroke="#000" stroke-width="1.2"/><text x="566.3" y="1211.0" font-size="10" text-anchor="middle" fill="#000" stroke="#fff" stroke-width="2.5" paint-order="stroke">WIR</text><text x="566.3" y="1223.0" font-size="10" text-anchor="middle" fill="#000" stroke="#fff" stroke-width="2.5" paint-order="stroke">1800×2500 mm</text><text x="566.3" y="1235.0" font-size="10" text-anchor="middle" fill="#000" stroke="#fff" stroke-width="2.5" paint-order="stroke">4.50 m2</text><rect x="621.3" y="1150.3" width="99.0" height="137.5" fill="#fff" stroke="#000" stroke-width="1.2"/><text x="670.8" y="1211.0" font-size="10" text-anchor="middle" fill="#000" stroke="#fff" stroke-width="2.5" paint-order="stroke">Ensuite</text><text x="670.8" y="1223.0" font-size="10" text-anchor="middle" fill="#000" stroke="#fff" stroke-width="2.5" paint-order="stroke">1800×2500 mm</text><text x="670.8" y="1235.0" font-size="10" text-anchor="middle" fill="#000" stroke="#fff" stroke-width="2.5" paint-order="stroke">4.50 m2</text><rect x="56.5" y="426.4" width="677.6" height="13.8" fill="#222" stroke="#222" stroke-width="0.5"/><rect x="56.5" y="1287.8" width="677.6" height="13.8" fill="#222" stroke="#222" stroke-width="0.5"/><rect x="56.5" y="440.2" width="13.8" height="847.5" fill="#222" stroke="#222" stroke-width="0.5"/><rect x="720.3" y="440.2" width="13.8" height="847.5" fill="#222" stroke="#222" stroke-width="0.5"/><rect x="450.8" y="440.2" width="5.5" height="847.5" fill="#222" stroke="#222" stroke-width="0.5"/><rect x="511.3" y="440.2" width="5.5" height="349.8" fill="#222" stroke="#222" stroke-width="0.5"/><rect x="511.3" y="968.8" width="5.5" height="319.0" fill="#222" stroke="#222" stroke-width="0.5"/><rect x="571.8" y="784.5" width="5.5" height="189.8" fill="#222" stroke="#222" stroke-width="0.5"/><rect x="615.8" y="1144.8" width="5.5" height="143.0" fill="#222" stroke="#222" stroke-width="0.5"/><rect x="70.2" y="653.0" width="386.1" height="5.5" fill="#222" stroke="#222" stroke-width="0.5"/><rect x="70.2" y="957.8" width="386.1" height="5.5" fill="#222" stroke="#222" stroke-width="0.5"/><rect x="511.3" y="608.0" width="209.0" height="5.5" fill="#222" stroke="#222" stroke-width="0.5"/><rect x="511.3" y="784.5" width="209.0" height="5.5" fill="#222" stroke="#222" stroke-width="0.5"/><rect x="571.8" y="900.5" width="148.5" height="5.5" fill="#222" stroke="#222" stroke-width="0.5"/><rect x="511.3" y="968.8" width="209.0" height="5.5" fill="#222" stroke="#222" stroke-width="0.5"/><rect x="511.3" y="1144.8" width="209.0" height="5.5" fill="#222" stroke="#222" stroke-width="0.5"/><rect x="235.8" y="653.0" width="45.1" height="5.5" fill="#fff" stroke="none"/><path d="M235.8 655.8 L235.8 610.7 M280.9 655.8 A45.1 45.1 0 0 0 235.8 610.7" fill="none" stroke="#000" stroke-width="0.9"/><rect x="450.8" y="817.5" width="5.5" height="45.1" fill="#fff" stroke="none"/><path d="M453.6 817.5 L408.4 817.5 M453.6 862.6 A45.1 45.1 0 0 1 408.4 817.5" fill="none" stroke="#000" stroke-width="0.9"/><rect x="450.8" y="1237.2" width="5.5" height="45.1" fill="#fff" stroke="none"/><path d="M453.6 1237.2 L408.4 1237.2 M453.6 1282.3 A45.1 45.1 0 0 1 408.4 1237.2" fill="none" stroke="#000" stroke-width="0.9"/><rect x="511.3" y="468.3" width="5.5" height="45.1" fill="#fff" stroke="none"/><path d="M514.0 468.3 L559.1 468.3 M514.0 513.4 A45.1 45.1 0 0 0 559.1 468.3" fill="none" stroke="#000" stroke-width="0.9"/><rect x="511.3" y="722.4" width="5.5" height="45.1" fill="#fff" stroke="none"/><path d="M514.0 722.4 L559.1 722.4 M514.0 767.5 A45.1 45.1 0 0 0 559.1 722.4" fill="none" stroke="#000" stroke-width="0.9"/><rect x="571.8" y="830.1" width="5.5" height="45.1" fill="#fff" stroke="none"/><path d="M574.5 830.1 L619.6 830.1 M574.5 875.3 A45.1 45.1 0 0 0 619.6 830.1" fill="none" stroke="#000" stroke-width="0.9"/><rect x="571.8" y="918.1" width="5.5" height="45.1" fill="#fff" stroke="none"/><path d="M574.5 918.1 L619.6 918.1 M574.5 963.3 A45.1 45.1 0 0 0 619.6 918.1" fill="none" stroke="#000" stroke-width="0.9"/><rect x="511.3" y="1074.3" width="5.5" height="45.1" fill="#fff" stroke="none"/><path d="M514.0 1074.3 L559.1 1074.3 M514.0 1119.4 A45.1 45.1 0 0 0 559.1 1074.3" fill="none" stroke="#000" stroke-width="0.9"/><rect x="525.6" y="1144.8" width="45.1" height="5.5" fill="#fff" stroke="none"/><path d="M525.6 1147.5 L525.6 1192.6 M570.7 1147.5 A45.1 45.1 0 0 1 525.6 1192.6" fill="none" stroke="#000" stroke-width="0.9"/><rect x="615.8" y="1182.7" width="5.5" height="45.1" fill="#fff" stroke="none"/><path d="M618.5 1182.7 L663.6 1182.7 M618.5 1227.8 A45.1 45.1 0 0 0 663.6 1182.7" fill="none" stroke="#000" stroke-width="0.9"/><rect x="458.5" y="1287.8" width="50.6" height="13.8" fill="#fff" stroke="none"/><rect x="458.5" y="1287.8" width="50.6" height="13.8" fill="#fff" stroke="#000" stroke-width="0.8" stroke-dasharray="4 3"/><text x="483.8" y="1312.5" font-size="9" text-anchor="middle">FRONT DOOR 920</text><rect x="128.5" y="1287.8" width="264.0" height="13.8" fill="#fff" stroke="none"/><rect x="128.5" y="1287.8" width="264.0" height="13.8" fill="#fff" stroke="#000" stroke-width="0.8" stroke-dasharray="4 3"/><text x="260.5" y="1312.5" font-size="9" text-anchor="middle">VEHICLE OPENING 4800</text><text x="24" y="146" font-size="10">Stage 6: wall bands (exterior 250, interior 100 mm, shared walls drawn once), doors, final hallway segments (links absorb the stage-4 bays).</text><text x="24" y="1334" font-size="11" font-weight="bold">Legend (no colour is used: read the labels)</text><rect x="24" y="1340" width="34" height="12" fill="url(#hall)" stroke="#000" stroke-width="1"/><text x="64" y="1350" font-size="10">Hallway strip / Entry (diagonal hatch)</text><rect x="204" y="1340" width="34" height="12" fill="#222"/><text x="244" y="1350" font-size="10">Wall band (black)</text><rect x="384" y="1340" width="34" height="12" fill="url(#flex)" stroke="#000" stroke-width="1"/><text x="424" y="1350" font-size="10">Flex patch (cross hatch)</text><path d="M564 1348 h26 M564 1348 a26 26 0 0 1 26 -26" stroke="#000" fill="none" stroke-width="1"/><text x="604" y="1350" font-size="10">Door gap with swing arc (820 clear)</text><text x="24" y="1430" font-size="10">FRONT edge is the bottom of the drawing: Entry and the Garage vehicle opening sit on it.</text></svg>