<svg xmlns="http://www.w3.org/2000/svg" width="791" height="1438" viewBox="0 0 791 1438" font-family="Arial, Helvetica, sans-serif"><rect width="100%" height="100%" fill="#fff"/><defs>
<pattern id="hall" width="8" height="8" patternUnits="userSpaceOnUse" patternTransform="rotate(45)"><rect width="8" height="8" fill="#fff"/><line x1="0" y1="0" x2="0" y2="8" stroke="#555" stroke-width="1.4"/></pattern>
<pattern id="flex" width="9" height="9" patternUnits="userSpaceOnUse"><rect width="9" height="9" fill="#fff"/><path d="M0 0L9 9M9 0L0 9" stroke="#666" stroke-width="1"/></pattern>
<pattern id="wall" width="4" height="4" patternUnits="userSpaceOnUse"><rect width="4" height="4" fill="#222"/></pattern>
</defs><text x="24" y="30" font-size="12" font-weight="bold" fill="#000">WHAT-IF: envelope width 13500 (not the PL-10 envelope 12500; needs-human calibration) | retained valid candidate 2 of 6</text><text x="24" y="44" font-size="11" font-weight="normal" fill="#000">GB-01 (D59 fourth reference plan, CF-01 style) [WHAT-IF: envelope width 13500 (not the PL-10 envelope 12500; needs-human calibration)]   |   candidate 1-4858302   |   STAGE 6 of the real generator output</text><text x="24" y="58" font-size="11" font-weight="normal" fill="#000">seed 1   |   strategy seed CF-01   |   hallway shape: spine</text><text x="24" y="72" font-size="11" font-weight="normal" fill="#000">FINAL VALIDATION (stage 6, independent validator): VALID, all 17 rules pass</text><text x="24" y="86" font-size="11" font-weight="normal" fill="#000">footprint (outside face) 12170×15740 mm = 191.56 m2 | envelope max 13500×20500</text><text x="24" y="100" font-size="11" font-weight="normal" fill="#000">room area 152.42 m2 | hallway area 18.93 m2 (reported separately) | flex 0.00 m2</text><text x="24" y="114" font-size="11" font-weight="normal" fill="#000">All sizes are clear internal dimensions in mm unless marked. Provisional - uncalibrated (G-CALIBRATION).</text><rect x="24" y="174" width="742.5" height="1127.5" fill="none" stroke="#000" stroke-width="0.8" stroke-dasharray="1 5"/><text x="28" y="186" font-size="9">envelope max 13500×20500 (dotted)</text><rect x="452.2" y="449.6" width="55.0" height="767.8" fill="url(#hall)" stroke="#000" stroke-width="1.2"/><text x="479.7" y="831.5" font-size="9" text-anchor="middle" fill="#000" stroke="#fff" stroke-width="2.5" paint-order="stroke">Hallway strip</text><text x="479.7" y="842.5" font-size="9" text-anchor="middle" fill="#000" stroke="#fff" stroke-width="2.5" paint-order="stroke">1000×13960</text><rect x="452.2" y="1217.3" width="55.0" height="70.4" fill="url(#hall)" stroke="#000" stroke-width="1.2"/><text x="479.7" y="1250.5" font-size="9" text-anchor="middle" fill="#000" stroke="#fff" stroke-width="2.5" paint-order="stroke">ENTRY</text><text x="479.7" y="1261.5" font-size="9" text-anchor="middle" fill="#000" stroke="#fff" stroke-width="2.5" paint-order="stroke">1000×1280</text><rect x="512.7" y="449.6" width="55.5" height="110.0" fill="url(#hall)" stroke="#000" stroke-width="1.2"/><text x="540.4" y="502.6" font-size="9" text-anchor="middle" fill="#000" stroke="#fff" stroke-width="2.5" paint-order="stroke">Hallway widening (slack)</text><text x="540.4" y="513.5" font-size="9" text-anchor="middle" fill="#000" stroke="#fff" stroke-width="2.5" paint-order="stroke">1010×2000</text><rect x="512.7" y="917.6" width="71.5" height="57.8" fill="url(#hall)" stroke="#000" stroke-width="1.2"/><text x="548.4" y="944.5" font-size="9" text-anchor="middle" fill="#000" stroke="#fff" stroke-width="2.5" paint-order="stroke">Hallway widening (slack)</text><text x="548.4" y="955.5" font-size="9" text-anchor="middle" fill="#000" stroke="#fff" stroke-width="2.5" paint-order="stroke">1300×1050</text><rect x="482.4" y="449.6" width="55.0" height="110.0" fill="url(#hall)" stroke="#000" stroke-width="1.2"/><text x="509.9" y="502.6" font-size="9" text-anchor="middle" fill="#000" stroke="#fff" stroke-width="2.5" paint-order="stroke">Hallway link</text><text x="509.9" y="513.5" font-size="9" text-anchor="middle" fill="#000" stroke="#fff" stroke-width="2.5" paint-order="stroke">1000×2000</text><rect x="482.4" y="917.6" width="55.0" height="57.8" fill="url(#hall)" stroke="#000" stroke-width="1.2"/><text x="509.9" y="944.5" font-size="9" text-anchor="middle" fill="#000" stroke="#fff" stroke-width="2.5" paint-order="stroke">Hallway link</text><text x="509.9" y="955.5" font-size="9" text-anchor="middle" fill="#000" stroke="#fff" stroke-width="2.5" paint-order="stroke">1000×1050</text><rect x="74.3" y="449.6" width="372.4" height="168.3" fill="#fff" stroke="#000" stroke-width="1.2"/><text x="260.5" y="525.7" font-size="10" text-anchor="middle" fill="#000" stroke="#fff" stroke-width="2.5" paint-order="stroke">Alfresco</text><text x="260.5" y="537.7" font-size="10" text-anchor="middle" fill="#000" stroke="#fff" stroke-width="2.5" paint-order="stroke">6770×3060 mm</text><text x="260.5" y="549.7" font-size="10" text-anchor="middle" fill="#000" stroke="#fff" stroke-width="2.5" paint-order="stroke">20.72 m2</text><rect x="74.3" y="623.4" width="372.4" height="305.8" fill="#fff" stroke="#000" stroke-width="1.2"/><text x="260.5" y="768.3" font-size="10" text-anchor="middle" fill="#000" stroke="#fff" stroke-width="2.5" paint-order="stroke">Family Core</text><text x="260.5" y="780.3" font-size="10" text-anchor="middle" fill="#000" stroke="#fff" stroke-width="2.5" paint-order="stroke">6770×5560 mm</text><text x="260.5" y="792.3" font-size="10" text-anchor="middle" fill="#000" stroke="#fff" stroke-width="2.5" paint-order="stroke">37.64 m2</text><rect x="74.3" y="934.6" width="372.4" height="353.1" fill="#fff" stroke="#000" stroke-width="1.2"/><text x="260.5" y="1103.2" font-size="10" text-anchor="middle" fill="#000" stroke="#fff" stroke-width="2.5" paint-order="stroke">Double Garage</text><text x="260.5" y="1115.2" font-size="10" text-anchor="middle" fill="#000" stroke="#fff" stroke-width="2.5" paint-order="stroke">6770×6420 mm</text><text x="260.5" y="1127.2" font-size="10" text-anchor="middle" fill="#000" stroke="#fff" stroke-width="2.5" paint-order="stroke">43.46 m2</text><rect x="573.7" y="449.6" width="142.4" height="110.0" fill="#fff" stroke="#000" stroke-width="1.2"/><text x="645.0" y="496.6" font-size="10" text-anchor="middle" fill="#000" stroke="#fff" stroke-width="2.5" paint-order="stroke">Shared Bathroom</text><text x="645.0" y="508.6" font-size="10" text-anchor="middle" fill="#000" stroke="#fff" stroke-width="2.5" paint-order="stroke">2590×2000 mm</text><text x="645.0" y="520.5" font-size="10" text-anchor="middle" fill="#000" stroke="#fff" stroke-width="2.5" paint-order="stroke">5.18 m2</text><rect x="512.7" y="565.0" width="203.5" height="154.0" fill="#fff" stroke="#000" stroke-width="1.2"/><text x="614.4" y="634.0" font-size="10" text-anchor="middle" fill="#000" stroke="#fff" stroke-width="2.5" paint-order="stroke">Bedroom 2</text><text x="614.4" y="646.0" font-size="10" text-anchor="middle" fill="#000" stroke="#fff" stroke-width="2.5" paint-order="stroke">3700×2800 mm</text><text x="614.4" y="658.0" font-size="10" text-anchor="middle" fill="#000" stroke="#fff" stroke-width="2.5" paint-order="stroke">10.36 m2</text><rect x="512.7" y="724.5" width="203.5" height="187.6" fill="#fff" stroke="#000" stroke-width="1.2"/><text x="614.4" y="810.3" font-size="10" text-anchor="middle" fill="#000" stroke="#fff" stroke-width="2.5" paint-order="stroke">Bedroom 3</text><text x="614.4" y="822.3" font-size="10" text-anchor="middle" fill="#000" stroke="#fff" stroke-width="2.5" paint-order="stroke">3700×3410 mm</text><text x="614.4" y="834.3" font-size="10" text-anchor="middle" fill="#000" stroke="#fff" stroke-width="2.5" paint-order="stroke">12.62 m2</text><rect x="589.7" y="917.6" width="126.5" height="57.8" fill="#fff" stroke="#000" stroke-width="1.2"/><text x="652.9" y="938.5" font-size="10" text-anchor="middle" fill="#000" stroke="#fff" stroke-width="2.5" paint-order="stroke">WC</text><text x="652.9" y="950.5" font-size="10" text-anchor="middle" fill="#000" stroke="#fff" stroke-width="2.5" paint-order="stroke">2300×1050 mm</text><text x="652.9" y="962.5" font-size="10" text-anchor="middle" fill="#000" stroke="#fff" stroke-width="2.5" paint-order="stroke">2.42 m2</text><rect x="512.7" y="980.9" width="203.5" height="165.6" fill="#fff" stroke="#000" stroke-width="1.2"/><text x="614.4" y="1055.6" font-size="10" text-anchor="middle" fill="#000" stroke="#fff" stroke-width="2.5" paint-order="stroke">Master</text><text x="614.4" y="1067.6" font-size="10" text-anchor="middle" fill="#000" stroke="#fff" stroke-width="2.5" paint-order="stroke">3700×3010 mm</text><text x="614.4" y="1079.6" font-size="10" text-anchor="middle" fill="#000" stroke="#fff" stroke-width="2.5" paint-order="stroke">11.14 m2</text><rect x="512.7" y="1151.9" width="99.0" height="135.8" fill="#fff" stroke="#000" stroke-width="1.2"/><text x="562.2" y="1211.8" font-size="10" text-anchor="middle" fill="#000" stroke="#fff" stroke-width="2.5" paint-order="stroke">Ensuite</text><text x="562.2" y="1223.8" font-size="10" text-anchor="middle" fill="#000" stroke="#fff" stroke-width="2.5" paint-order="stroke">1800×2470 mm</text><text x="562.2" y="1235.8" font-size="10" text-anchor="middle" fill="#000" stroke="#fff" stroke-width="2.5" paint-order="stroke">4.45 m2</text><rect x="617.2" y="1151.9" width="99.0" height="135.8" fill="#fff" stroke="#000" stroke-width="1.2"/><text x="666.7" y="1211.8" font-size="10" text-anchor="middle" fill="#000" stroke="#fff" stroke-width="2.5" paint-order="stroke">WIR</text><text x="666.7" y="1223.8" font-size="10" text-anchor="middle" fill="#000" stroke="#fff" stroke-width="2.5" paint-order="stroke">1800×2470 mm</text><text x="666.7" y="1235.8" font-size="10" text-anchor="middle" fill="#000" stroke="#fff" stroke-width="2.5" paint-order="stroke">4.45 m2</text><rect x="60.6" y="435.8" width="669.4" height="13.8" fill="#222" stroke="#222" stroke-width="0.5"/><rect x="60.6" y="1287.8" width="669.4" height="13.8" fill="#222" stroke="#222" stroke-width="0.5"/><rect x="60.6" y="449.6" width="13.8" height="838.2" fill="#222" stroke="#222" stroke-width="0.5"/><rect x="716.2" y="449.6" width="13.8" height="838.2" fill="#222" stroke="#222" stroke-width="0.5"/><rect x="446.7" y="449.6" width="5.5" height="838.2" fill="#222" stroke="#222" stroke-width="0.5"/><rect x="568.2" y="449.6" width="5.5" height="115.5" fill="#222" stroke="#222" stroke-width="0.5"/><rect x="507.2" y="559.5" width="5.5" height="358.1" fill="#222" stroke="#222" stroke-width="0.5"/><rect x="507.2" y="975.4" width="5.5" height="312.4" fill="#222" stroke="#222" stroke-width="0.5"/><rect x="584.2" y="912.1" width="5.5" height="68.8" fill="#222" stroke="#222" stroke-width="0.5"/><rect x="611.7" y="1146.4" width="5.5" height="141.3" fill="#222" stroke="#222" stroke-width="0.5"/><rect x="74.3" y="617.9" width="377.9" height="5.5" fill="#222" stroke="#222" stroke-width="0.5"/><rect x="74.3" y="929.1" width="377.9" height="5.5" fill="#222" stroke="#222" stroke-width="0.5"/><rect x="507.2" y="559.5" width="209.0" height="5.5" fill="#222" stroke="#222" stroke-width="0.5"/><rect x="507.2" y="719.0" width="209.0" height="5.5" fill="#222" stroke="#222" stroke-width="0.5"/><rect x="507.2" y="912.1" width="209.0" height="5.5" fill="#222" stroke="#222" stroke-width="0.5"/><rect x="507.2" y="975.4" width="209.0" height="5.5" fill="#222" stroke="#222" stroke-width="0.5"/><rect x="507.2" y="1146.4" width="209.0" height="5.5" fill="#222" stroke="#222" stroke-width="0.5"/><rect x="218.7" y="617.9" width="45.1" height="5.5" fill="#fff" stroke="none"/><path d="M218.7 620.6 L218.7 575.5 M263.8 620.6 A45.1 45.1 0 0 0 218.7 575.5" fill="none" stroke="#000" stroke-width="0.9"/><rect x="446.7" y="839.5" width="5.5" height="45.1" fill="#fff" stroke="none"/><path d="M449.4 839.5 L404.3 839.5 M449.4 884.6 A45.1 45.1 0 0 1 404.3 839.5" fill="none" stroke="#000" stroke-width="0.9"/><rect x="446.7" y="1010.5" width="5.5" height="45.1" fill="#fff" stroke="none"/><path d="M449.4 1010.5 L404.3 1010.5 M449.4 1055.6 A45.1 45.1 0 0 1 404.3 1010.5" fill="none" stroke="#000" stroke-width="0.9"/><rect x="568.2" y="493.6" width="5.5" height="45.1" fill="#fff" stroke="none"/><path d="M571.0 493.6 L616.1 493.6 M571.0 538.6 A45.1 45.1 0 0 0 616.1 493.6" fill="none" stroke="#000" stroke-width="0.9"/><rect x="507.2" y="611.8" width="5.5" height="45.1" fill="#fff" stroke="none"/><path d="M509.9 611.8 L555.0 611.8 M509.9 656.9 A45.1 45.1 0 0 0 555.0 611.8" fill="none" stroke="#000" stroke-width="0.9"/><rect x="507.2" y="795.0" width="5.5" height="45.1" fill="#fff" stroke="none"/><path d="M509.9 795.0 L555.0 795.0 M509.9 840.1 A45.1 45.1 0 0 0 555.0 795.0" fill="none" stroke="#000" stroke-width="0.9"/><rect x="584.2" y="924.2" width="5.5" height="45.1" fill="#fff" stroke="none"/><path d="M586.9 924.2 L632.0 924.2 M586.9 969.3 A45.1 45.1 0 0 0 632.0 924.2" fill="none" stroke="#000" stroke-width="0.9"/><rect x="524.5" y="975.4" width="45.1" height="5.5" fill="#fff" stroke="none"/><path d="M524.5 978.1 L524.5 1023.2 M569.6 978.1 A45.1 45.1 0 0 1 524.5 1023.2" fill="none" stroke="#000" stroke-width="0.9"/><rect x="611.7" y="1176.7" width="5.5" height="45.1" fill="#fff" stroke="none"/><path d="M614.4 1176.7 L569.3 1176.7 M614.4 1221.8 A45.1 45.1 0 0 1 569.3 1176.7" fill="none" stroke="#000" stroke-width="0.9"/><rect x="643.9" y="1146.4" width="45.1" height="5.5" fill="#fff" stroke="none"/><path d="M643.9 1149.2 L643.9 1194.3 M689.0 1149.2 A45.1 45.1 0 0 1 643.9 1194.3" fill="none" stroke="#000" stroke-width="0.9"/><rect x="454.4" y="1287.8" width="50.6" height="13.8" fill="#fff" stroke="none"/><rect x="454.4" y="1287.8" width="50.6" height="13.8" fill="#fff" stroke="#000" stroke-width="0.8" stroke-dasharray="4 3"/><text x="479.7" y="1312.5" font-size="9" text-anchor="middle">FRONT DOOR 920</text><rect x="128.5" y="1287.8" width="264.0" height="13.8" fill="#fff" stroke="none"/><rect x="128.5" y="1287.8" width="264.0" height="13.8" fill="#fff" stroke="#000" stroke-width="0.8" stroke-dasharray="4 3"/><text x="260.5" y="1312.5" font-size="9" text-anchor="middle">VEHICLE OPENING 4800</text><text x="24" y="146" font-size="10">Stage 6: wall bands (exterior 250, interior 100 mm, shared walls drawn once), doors, final hallway segments (links absorb the stage-4 bays).</text><text x="24" y="1334" font-size="11" font-weight="bold">Legend (no colour is used: read the labels)</text><rect x="24" y="1340" width="34" height="12" fill="url(#hall)" stroke="#000" stroke-width="1"/><text x="64" y="1350" font-size="10">Hallway strip / Entry (diagonal hatch)</text><rect x="204" y="1340" width="34" height="12" fill="#222"/><text x="244" y="1350" font-size="10">Wall band (black)</text><rect x="384" y="1340" width="34" height="12" fill="url(#flex)" stroke="#000" stroke-width="1"/><text x="424" y="1350" font-size="10">Flex patch (cross hatch)</text><path d="M564 1348 h26 M564 1348 a26 26 0 0 1 26 -26" stroke="#000" fill="none" stroke-width="1"/><text x="604" y="1350" font-size="10">Door gap with swing arc (820 clear)</text><text x="24" y="1430" font-size="10">FRONT edge is the bottom of the drawing: Entry and the Garage vehicle opening sit on it.</text></svg>