<?xml version="1.0" encoding="UTF-8"?>
<svg xmlns="http://www.w3.org/2000/svg" width="640" height="1175" viewBox="-900 -1600 12790 24190" font-family="Helvetica, Arial, sans-serif" fill="#000">
<defs>
<pattern id="hatch" width="600" height="600" patternUnits="userSpaceOnUse" patternTransform="rotate(45)">
  <rect width="600" height="600" fill="#ffffff"/>
  <line x1="0" y1="0" x2="0" y2="600" stroke="#999" stroke-width="90"/>
</pattern>
<pattern id="dots" width="600" height="600" patternUnits="userSpaceOnUse">
  <rect width="600" height="600" fill="#f4f4f4"/>
  <circle cx="300" cy="300" r="120" fill="#bbb"/>
</pattern>
</defs>
<rect x="-900" y="-1600" width="12790" height="24190" fill="#ffffff"/>
<text x="900" y="-360" font-size="600" font-weight="bold">zf-06 - R|band|front|wing</text>
<g><rect x="0" y="5200" width="4290" height="2190" fill="url(#hatch)" stroke="#555" stroke-width="40"/><text x="2145" y="6135" font-size="320" text-anchor="middle" dominant-baseline="middle">Flex · storage</text><text x="2145" y="6519" font-size="280" text-anchor="middle" dominant-baseline="middle">4.3 x 2.2 m</text></g>
<g><rect x="5490" y="5200" width="3300" height="3590" fill="url(#hatch)" stroke="#555" stroke-width="40"/><text x="7140" y="6835" font-size="320" text-anchor="middle" dominant-baseline="middle">Flex · room</text><text x="7140" y="7219" font-size="280" text-anchor="middle" dominant-baseline="middle">3.3 x 3.6 m</text></g>
<g><rect x="2400" y="7390" width="1890" height="4200" fill="url(#hatch)" stroke="#555" stroke-width="40"/><text x="3345" y="9330" font-size="320" text-anchor="middle" dominant-baseline="middle">Flex · storage</text><text x="3345" y="9714" font-size="280" text-anchor="middle" dominant-baseline="middle">1.9 x 4.2 m</text></g>
<g><rect x="8790" y="7800" width="2200" height="990" fill="url(#hatch)" stroke="#555" stroke-width="40"/><text x="9890" y="8135" font-size="320" text-anchor="middle" dominant-baseline="middle">sliver</text><text x="9890" y="8519" font-size="280" text-anchor="middle" dominant-baseline="middle">2.2 x 1.0 m</text></g>
<g><rect x="5490" y="8790" width="1210" height="6000" fill="url(#hatch)" stroke="#555" stroke-width="40"/><text x="6095" y="11630" font-size="320" text-anchor="middle" dominant-baseline="middle">Flex · circulation</text><text x="6095" y="12014" font-size="280" text-anchor="middle" dominant-baseline="middle">1.2 x 6.0 m</text></g>
<g><rect x="5490" y="14790" width="5500" height="6000" fill="#e8e8e8" stroke="#000" stroke-width="60"/><text x="8240" y="17598" font-size="320" text-anchor="middle" dominant-baseline="middle">Garage</text><text x="8240" y="17982" font-size="320" text-anchor="middle" dominant-baseline="middle">5.5 x 6.0 m</text></g>
<g><rect x="0" y="0" width="10990" height="5200" fill="#e8e8e8" stroke="#000" stroke-width="60"/><text x="5495" y="2408" font-size="320" text-anchor="middle" dominant-baseline="middle">Family Core</text><text x="5495" y="2792" font-size="320" text-anchor="middle" dominant-baseline="middle">11.0 x 5.2 m</text></g>
<g><rect x="0" y="14590" width="4290" height="6200" fill="#e8e8e8" stroke="#000" stroke-width="60"/><text x="2145" y="17498" font-size="320" text-anchor="middle" dominant-baseline="middle">Master suite</text><text x="2145" y="17882" font-size="320" text-anchor="middle" dominant-baseline="middle">4.3 x 6.2 m</text></g>
<g><rect x="8790" y="5200" width="2200" height="2600" fill="#e8e8e8" stroke="#000" stroke-width="60"/><text x="9890" y="6308" font-size="320" text-anchor="middle" dominant-baseline="middle">Laundry</text><text x="9890" y="6692" font-size="320" text-anchor="middle" dominant-baseline="middle">2.2 x 2.6 m</text></g>
<g><rect x="0" y="11590" width="4290" height="3000" fill="#e8e8e8" stroke="#000" stroke-width="60"/><text x="2145" y="12898" font-size="320" text-anchor="middle" dominant-baseline="middle">Bedroom 2</text><text x="2145" y="13282" font-size="320" text-anchor="middle" dominant-baseline="middle">4.3 x 3.0 m</text></g>
<g><rect x="0" y="7390" width="2400" height="4200" fill="#e8e8e8" stroke="#000" stroke-width="60"/><text x="1200" y="9298" font-size="320" text-anchor="middle" dominant-baseline="middle">Bath + WC</text><text x="1200" y="9682" font-size="320" text-anchor="middle" dominant-baseline="middle">2.4 x 4.2 m</text></g>
<g><rect x="6700" y="11790" width="4290" height="3000" fill="#e8e8e8" stroke="#000" stroke-width="60"/><text x="8845" y="13098" font-size="320" text-anchor="middle" dominant-baseline="middle">Bedroom 3</text><text x="8845" y="13482" font-size="320" text-anchor="middle" dominant-baseline="middle">4.3 x 3.0 m</text></g>
<g><rect x="6700" y="8790" width="4290" height="3000" fill="#e8e8e8" stroke="#000" stroke-width="60"/><text x="8845" y="10098" font-size="320" text-anchor="middle" dominant-baseline="middle">Bedroom 4</text><text x="8845" y="10482" font-size="320" text-anchor="middle" dominant-baseline="middle">4.3 x 3.0 m</text></g>
<g><rect x="4290" y="5200" width="1200" height="15590" fill="url(#dots)" stroke="#000" stroke-width="60"/><text x="4890" y="12835" font-size="320" text-anchor="middle" dominant-baseline="middle">Spine</text><text x="4890" y="13219" font-size="280" text-anchor="middle" dominant-baseline="middle">1.2 x 15.6 m</text></g>
<rect x="0" y="0" width="10990" height="20790" fill="none" stroke="#000" stroke-width="120"/>
<text x="5495" y="22590" font-size="700" text-anchor="middle" font-weight="bold">FRONT (street)</text>
</svg>
