<svg xmlns="http://www.w3.org/2000/svg" width="873" height="1410" viewBox="0 0 873 1410" font-family="Arial, Helvetica, sans-serif"><rect width="100%" height="100%" fill="#fff"/><defs>
<pattern id="hall" width="8" height="8" patternUnits="userSpaceOnUse" patternTransform="rotate(45)"><rect width="8" height="8" fill="#fff"/><line x1="0" y1="0" x2="0" y2="8" stroke="#555" stroke-width="1.4"/></pattern>
<pattern id="flex" width="9" height="9" patternUnits="userSpaceOnUse"><rect width="9" height="9" fill="#fff"/><path d="M0 0L9 9M9 0L0 9" stroke="#666" stroke-width="1"/></pattern>
<pattern id="wall" width="4" height="4" patternUnits="userSpaceOnUse"><rect width="4" height="4" fill="#222"/></pattern>
</defs><text x="24" y="30" font-size="12" font-weight="bold" fill="#000">FIXTURE-A (no Alfresco in the program, D63) | T1 wing-garage | seed 23 | WHAT-IF single Garage, not the brief | provisional</text><text x="24" y="44" font-size="11" font-weight="normal" fill="#000">Fixture A (legacy Stage 0 program) (no Alfresco in the program, D63) | WHAT-IF single Garage (the brief has a double Garage)   |   candidate 23-0   |   STAGE 6 of the real generator output</text><text x="24" y="58" font-size="11" font-weight="normal" fill="#000">seed 23   |   strategy seed T1-wing-garage   |   hallway shape: spine</text><text x="24" y="72" font-size="11" font-weight="normal" fill="#000">FINAL VALIDATION (stage 6, independent validator): VALID, all 19 rules pass</text><text x="24" y="86" font-size="11" font-weight="normal" fill="#000">footprint (outside face) 11000×19400 mm = 213.40 m2 | envelope max 15000×20000</text><text x="24" y="100" font-size="11" font-weight="normal" fill="#000">room area 165.06 m2 | hallway area 25.71 m2 (reported separately) | flex 0.00 m2</text><text x="24" y="114" font-size="11" font-weight="normal" fill="#000">All sizes are clear internal dimensions in mm unless marked. Provisional - uncalibrated (G-CALIBRATION).</text><rect x="24" y="174" width="825" height="1100" fill="none" stroke="#000" stroke-width="0.8" stroke-dasharray="1 5"/><text x="28" y="186" font-size="9">envelope max 15000×20000 (dotted)</text><rect x="439.3" y="1188.8" width="60.5" height="71.5" fill="url(#hall)" stroke="#000" stroke-width="1.2"/><text x="469.5" y="1222.5" font-size="9" text-anchor="middle" fill="#000" stroke="#fff" stroke-width="2.5" paint-order="stroke">ENTRY</text><text x="469.5" y="1233.5" font-size="9" text-anchor="middle" fill="#000" stroke="#fff" stroke-width="2.5" paint-order="stroke">1100×1300</text><rect x="439.3" y="220.8" width="60.5" height="968.0" fill="url(#hall)" stroke="#000" stroke-width="1.2"/><text x="469.5" y="702.8" font-size="9" text-anchor="middle" fill="#000" stroke="#fff" stroke-width="2.5" paint-order="stroke">Hallway</text><text x="469.5" y="713.8" font-size="9" text-anchor="middle" fill="#000" stroke="#fff" stroke-width="2.5" paint-order="stroke">1100×17600</text><rect x="505.3" y="605.8" width="220.0" height="66.0" fill="url(#hall)" stroke="#000" stroke-width="1.2"/><text x="615.3" y="636.8" font-size="9" text-anchor="middle" fill="#000" stroke="#fff" stroke-width="2.5" paint-order="stroke">Hallway link</text><text x="615.3" y="647.8" font-size="9" text-anchor="middle" fill="#000" stroke="#fff" stroke-width="2.5" paint-order="stroke">4000×1200</text><rect x="475.0" y="605.8" width="55.0" height="66.0" fill="url(#hall)" stroke="#000" stroke-width="1.2"/><text x="502.5" y="636.8" font-size="9" text-anchor="middle" fill="#000" stroke="#fff" stroke-width="2.5" paint-order="stroke">Hallway link</text><text x="502.5" y="647.8" font-size="9" text-anchor="middle" fill="#000" stroke="#fff" stroke-width="2.5" paint-order="stroke">1000×1200</text><rect x="147.8" y="1051.3" width="286.0" height="209.0" fill="#fff" stroke="#000" stroke-width="1.2"/><text x="290.8" y="1147.8" font-size="10" text-anchor="middle" fill="#000" stroke="#fff" stroke-width="2.5" paint-order="stroke">Master</text><text x="290.8" y="1159.8" font-size="10" text-anchor="middle" fill="#000" stroke="#fff" stroke-width="2.5" paint-order="stroke">5200×3800 mm</text><text x="290.8" y="1171.8" font-size="10" text-anchor="middle" fill="#000" stroke="#fff" stroke-width="2.5" paint-order="stroke">19.76 m2</text><rect x="147.8" y="902.8" width="143.0" height="143.0" fill="#fff" stroke="#000" stroke-width="1.2"/><text x="219.3" y="966.3" font-size="10" text-anchor="middle" fill="#000" stroke="#fff" stroke-width="2.5" paint-order="stroke">WIR</text><text x="219.3" y="978.3" font-size="10" text-anchor="middle" fill="#000" stroke="#fff" stroke-width="2.5" paint-order="stroke">2600×2600 mm</text><text x="219.3" y="990.3" font-size="10" text-anchor="middle" fill="#000" stroke="#fff" stroke-width="2.5" paint-order="stroke">6.76 m2</text><rect x="296.3" y="902.8" width="137.5" height="143.0" fill="#fff" stroke="#000" stroke-width="1.2"/><text x="365.0" y="966.3" font-size="10" text-anchor="middle" fill="#000" stroke="#fff" stroke-width="2.5" paint-order="stroke">Ensuite</text><text x="365.0" y="978.3" font-size="10" text-anchor="middle" fill="#000" stroke="#fff" stroke-width="2.5" paint-order="stroke">2500×2600 mm</text><text x="365.0" y="990.3" font-size="10" text-anchor="middle" fill="#000" stroke="#fff" stroke-width="2.5" paint-order="stroke">6.50 m2</text><rect x="505.3" y="902.8" width="220.0" height="357.5" fill="#fff" stroke="#000" stroke-width="1.2"/><text x="615.3" y="1073.5" font-size="10" text-anchor="middle" fill="#000" stroke="#fff" stroke-width="2.5" paint-order="stroke">Single Garage</text><text x="615.3" y="1085.5" font-size="10" text-anchor="middle" fill="#000" stroke="#fff" stroke-width="2.5" paint-order="stroke">4000×6500 mm</text><text x="615.3" y="1097.5" font-size="10" text-anchor="middle" fill="#000" stroke="#fff" stroke-width="2.5" paint-order="stroke">26.00 m2</text><rect x="505.3" y="677.3" width="220.0" height="220.0" fill="#fff" stroke="#000" stroke-width="1.2"/><text x="615.3" y="779.3" font-size="10" text-anchor="middle" fill="#000" stroke="#fff" stroke-width="2.5" paint-order="stroke">Bedroom 2</text><text x="615.3" y="791.3" font-size="10" text-anchor="middle" fill="#000" stroke="#fff" stroke-width="2.5" paint-order="stroke">4000×4000 mm</text><text x="615.3" y="803.3" font-size="10" text-anchor="middle" fill="#000" stroke="#fff" stroke-width="2.5" paint-order="stroke">16.00 m2</text><rect x="505.3" y="446.3" width="143.0" height="154.0" fill="#fff" stroke="#000" stroke-width="1.2"/><text x="576.8" y="515.3" font-size="10" text-anchor="middle" fill="#000" stroke="#fff" stroke-width="2.5" paint-order="stroke">Shared Bathroom</text><text x="576.8" y="527.3" font-size="10" text-anchor="middle" fill="#000" stroke="#fff" stroke-width="2.5" paint-order="stroke">2600×2800 mm</text><text x="576.8" y="539.3" font-size="10" text-anchor="middle" fill="#000" stroke="#fff" stroke-width="2.5" paint-order="stroke">7.28 m2</text><rect x="653.8" y="446.3" width="71.5" height="154.0" fill="#fff" stroke="#000" stroke-width="1.2"/><text x="689.5" y="515.3" font-size="10" text-anchor="middle" fill="#000" stroke="#fff" stroke-width="2.5" paint-order="stroke">WC</text><text x="689.5" y="527.3" font-size="10" text-anchor="middle" fill="#000" stroke="#fff" stroke-width="2.5" paint-order="stroke">1300×2800 mm</text><text x="689.5" y="539.3" font-size="10" text-anchor="middle" fill="#000" stroke="#fff" stroke-width="2.5" paint-order="stroke">3.64 m2</text><rect x="505.3" y="220.8" width="220.0" height="220.0" fill="#fff" stroke="#000" stroke-width="1.2"/><text x="615.3" y="322.8" font-size="10" text-anchor="middle" fill="#000" stroke="#fff" stroke-width="2.5" paint-order="stroke">Bedroom 3</text><text x="615.3" y="334.8" font-size="10" text-anchor="middle" fill="#000" stroke="#fff" stroke-width="2.5" paint-order="stroke">4000×4000 mm</text><text x="615.3" y="346.8" font-size="10" text-anchor="middle" fill="#000" stroke="#fff" stroke-width="2.5" paint-order="stroke">16.00 m2</text><rect x="147.8" y="402.3" width="286.0" height="495.0" fill="#fff" stroke="#000" stroke-width="1.2"/><text x="290.8" y="641.8" font-size="10" text-anchor="middle" fill="#000" stroke="#fff" stroke-width="2.5" paint-order="stroke">Family Core</text><text x="290.8" y="653.8" font-size="10" text-anchor="middle" fill="#000" stroke="#fff" stroke-width="2.5" paint-order="stroke">5200×9000 mm</text><text x="290.8" y="665.8" font-size="10" text-anchor="middle" fill="#000" stroke="#fff" stroke-width="2.5" paint-order="stroke">46.80 m2</text><rect x="147.8" y="220.8" width="117.7" height="176.0" fill="#fff" stroke="#000" stroke-width="1.2"/><text x="206.6" y="300.8" font-size="10" text-anchor="middle" fill="#000" stroke="#fff" stroke-width="2.5" paint-order="stroke">Laundry</text><text x="206.6" y="312.8" font-size="10" text-anchor="middle" fill="#000" stroke="#fff" stroke-width="2.5" paint-order="stroke">2140×3200 mm</text><text x="206.6" y="324.8" font-size="10" text-anchor="middle" fill="#000" stroke="#fff" stroke-width="2.5" paint-order="stroke">6.85 m2</text><rect x="270.9" y="220.8" width="162.8" height="176.0" fill="#fff" stroke="#000" stroke-width="1.2"/><text x="352.4" y="300.8" font-size="10" text-anchor="middle" fill="#000" stroke="#fff" stroke-width="2.5" paint-order="stroke">Bedroom 4</text><text x="352.4" y="312.8" font-size="10" text-anchor="middle" fill="#000" stroke="#fff" stroke-width="2.5" paint-order="stroke">2960×3200 mm</text><text x="352.4" y="324.8" font-size="10" text-anchor="middle" fill="#000" stroke="#fff" stroke-width="2.5" paint-order="stroke">9.47 m2</text><rect x="134.0" y="207.0" width="605.0" height="13.8" fill="#222" stroke="#222" stroke-width="0.5"/><rect x="134.0" y="1260.3" width="605.0" height="13.8" fill="#222" stroke="#222" stroke-width="0.5"/><rect x="134.0" y="220.8" width="13.8" height="1039.5" fill="#222" stroke="#222" stroke-width="0.5"/><rect x="725.3" y="220.8" width="13.8" height="1039.5" fill="#222" stroke="#222" stroke-width="0.5"/><rect x="433.8" y="220.8" width="5.5" height="1039.5" fill="#222" stroke="#222" stroke-width="0.5"/><rect x="290.8" y="897.3" width="5.5" height="154.0" fill="#222" stroke="#222" stroke-width="0.5"/><rect x="499.8" y="220.8" width="5.5" height="385.0" fill="#222" stroke="#222" stroke-width="0.5"/><rect x="499.8" y="671.8" width="5.5" height="588.5" fill="#222" stroke="#222" stroke-width="0.5"/><rect x="648.3" y="440.8" width="5.5" height="165.0" fill="#222" stroke="#222" stroke-width="0.5"/><rect x="265.4" y="220.8" width="5.5" height="181.5" fill="#222" stroke="#222" stroke-width="0.5"/><rect x="147.8" y="1045.8" width="291.5" height="5.5" fill="#222" stroke="#222" stroke-width="0.5"/><rect x="147.8" y="897.3" width="291.5" height="5.5" fill="#222" stroke="#222" stroke-width="0.5"/><rect x="499.8" y="897.3" width="225.5" height="5.5" fill="#222" stroke="#222" stroke-width="0.5"/><rect x="499.8" y="671.8" width="225.5" height="5.5" fill="#222" stroke="#222" stroke-width="0.5"/><rect x="499.8" y="440.8" width="225.5" height="5.5" fill="#222" stroke="#222" stroke-width="0.5"/><rect x="499.8" y="600.3" width="225.5" height="5.5" fill="#222" stroke="#222" stroke-width="0.5"/><rect x="147.8" y="396.8" width="291.5" height="5.5" fill="#222" stroke="#222" stroke-width="0.5"/><rect x="433.8" y="1097.5" width="5.5" height="45.1" fill="#fff" stroke="none"/><path d="M436.5 1097.5 L391.4 1097.5 M436.5 1142.5 A45.1 45.1 0 0 1 391.4 1097.5" fill="none" stroke="#000" stroke-width="0.9"/><rect x="196.7" y="1045.8" width="45.1" height="5.5" fill="#fff" stroke="none"/><path d="M196.7 1048.5 L196.7 1003.4 M241.8 1048.5 A45.1 45.1 0 0 0 196.7 1003.4" fill="none" stroke="#000" stroke-width="0.9"/><rect x="342.4" y="1045.8" width="45.1" height="5.5" fill="#fff" stroke="none"/><path d="M342.4 1048.5 L342.4 1003.4 M387.6 1048.5 A45.1 45.1 0 0 0 342.4 1003.4" fill="none" stroke="#000" stroke-width="0.9"/><rect x="499.8" y="1023.2" width="5.5" height="45.1" fill="#fff" stroke="none"/><path d="M502.5 1023.2 L547.6 1023.2 M502.5 1068.3 A45.1 45.1 0 0 0 547.6 1023.2" fill="none" stroke="#000" stroke-width="0.9"/><rect x="592.7" y="671.8" width="45.1" height="5.5" fill="#fff" stroke="none"/><path d="M592.7 674.5 L592.7 719.6 M637.8 674.5 A45.1 45.1 0 0 1 592.7 719.6" fill="none" stroke="#000" stroke-width="0.9"/><rect x="499.8" y="500.7" width="5.5" height="45.1" fill="#fff" stroke="none"/><path d="M502.5 500.7 L547.6 500.7 M502.5 545.8 A45.1 45.1 0 0 0 547.6 500.7" fill="none" stroke="#000" stroke-width="0.9"/><rect x="667.0" y="600.3" width="45.1" height="5.5" fill="#fff" stroke="none"/><path d="M667.0 603.0 L667.0 557.9 M712.1 603.0 A45.1 45.1 0 0 0 667.0 557.9" fill="none" stroke="#000" stroke-width="0.9"/><rect x="499.8" y="308.2" width="5.5" height="45.1" fill="#fff" stroke="none"/><path d="M502.5 308.2 L547.6 308.2 M502.5 353.3 A45.1 45.1 0 0 0 547.6 308.2" fill="none" stroke="#000" stroke-width="0.9"/><rect x="184.1" y="396.8" width="45.1" height="5.5" fill="#fff" stroke="none"/><path d="M184.1 399.5 L184.1 354.4 M229.2 399.5 A45.1 45.1 0 0 0 184.1 354.4" fill="none" stroke="#000" stroke-width="0.9"/><rect x="433.8" y="286.2" width="5.5" height="45.1" fill="#fff" stroke="none"/><path d="M436.5 286.2 L391.4 286.2 M436.5 331.3 A45.1 45.1 0 0 1 391.4 286.2" fill="none" stroke="#000" stroke-width="0.9"/><rect x="433.8" y="583.8" width="5.5" height="132.0" fill="#fff" stroke="none"/><path d="M436.5 583.8 L568.5 583.8 M436.5 715.8 A132.0 132.0 0 0 0 568.5 583.8" fill="none" stroke="#000" stroke-width="0.9"/><rect x="444.2" y="1260.3" width="50.6" height="13.8" fill="#fff" stroke="none"/><rect x="444.2" y="1260.3" width="50.6" height="13.8" fill="#fff" stroke="#000" stroke-width="0.8" stroke-dasharray="4 3"/><text x="469.5" y="1285.0" font-size="9" text-anchor="middle">FRONT DOOR 920</text><rect x="549.3" y="1260.3" width="132.0" height="13.8" fill="#fff" stroke="none"/><rect x="549.3" y="1260.3" width="132.0" height="13.8" fill="#fff" stroke="#000" stroke-width="0.8" stroke-dasharray="4 3"/><text x="615.3" y="1285.0" font-size="9" text-anchor="middle">VEHICLE OPENING 2400</text><text x="24" y="146" font-size="10">Stage 6: wall bands (exterior 250, interior 100 mm, shared walls drawn once), doors, final hallway segments (links absorb the stage-4 bays).</text><text x="24" y="1306" font-size="11" font-weight="bold">Legend (no colour is used: read the labels)</text><rect x="24" y="1312" width="34" height="12" fill="url(#hall)" stroke="#000" stroke-width="1"/><text x="64" y="1322" font-size="10">Hallway strip / Entry (diagonal hatch)</text><rect x="204" y="1312" width="34" height="12" fill="#222"/><text x="244" y="1322" font-size="10">Wall band (black)</text><rect x="384" y="1312" width="34" height="12" fill="url(#flex)" stroke="#000" stroke-width="1"/><text x="424" y="1322" font-size="10">Flex patch (cross hatch)</text><path d="M564 1320 h26 M564 1320 a26 26 0 0 1 26 -26" stroke="#000" fill="none" stroke-width="1"/><text x="604" y="1322" font-size="10">Door gap with swing arc (820 clear)</text><text x="24" y="1402" font-size="10">FRONT edge is the bottom of the drawing: Entry and the Garage vehicle opening sit on it.</text></svg>