<svg xmlns="http://www.w3.org/2000/svg" width="669" height="892" viewBox="0 0 669 892" role="img" aria-label="GB-01 without Alfresco (D63) | T4 rear-lobby | seed 1 | provisional · candidate 1-0" font-family="Arial, Helvetica, sans-serif" shape-rendering="geometricPrecision"><rect width="100%" height="100%" fill="#fff"/><title>GB-01 without Alfresco (D63) | T4 rear-lobby | seed 1 | provisional · candidate 1-0</title><rect x="45.8" y="47.8" width="577.5" height="770.0" fill="#eef1ef" stroke="none"/><rect x="45.8" y="636.3" width="206.3" height="181.5" fill="#eef1ef" stroke="none"/><rect x="45.8" y="487.8" width="100.1" height="143.0" fill="#eef1ef" stroke="none"/><rect x="151.3" y="487.8" width="100.7" height="143.0" fill="#eef1ef" stroke="none"/><rect x="318.0" y="487.8" width="305.3" height="330.0" fill="#eef1ef" stroke="none"/><rect x="45.8" y="256.8" width="489.5" height="225.5" fill="#eef1ef" stroke="none"/><rect x="45.8" y="47.8" width="165.0" height="203.5" fill="#eef1ef" stroke="none"/><rect x="216.3" y="47.8" width="165.0" height="132.0" fill="#eef1ef" stroke="none"/><rect x="386.8" y="47.8" width="66.0" height="132.0" fill="#eef1ef" stroke="none"/><rect x="458.3" y="47.8" width="165.0" height="203.5" fill="#eef1ef" stroke="none"/><rect x="257.5" y="746.3" width="55.0" height="71.5" fill="#eef1ef" stroke="none"/><rect x="257.5" y="487.8" width="55.0" height="258.5" fill="#eef1ef" stroke="none"/><rect x="216.3" y="185.3" width="236.5" height="66.0" fill="#eef1ef" stroke="none"/><rect x="32.0" y="34.0" width="605.0" height="13.8" fill="#191b1a" stroke="none"/><rect x="32.0" y="817.8" width="605.0" height="13.8" fill="#191b1a" stroke="none"/><rect x="32.0" y="47.8" width="13.8" height="770.0" fill="#191b1a" stroke="none"/><rect x="623.3" y="47.8" width="13.8" height="770.0" fill="#191b1a" stroke="none"/><rect x="252.0" y="482.3" width="5.5" height="335.5" fill="#191b1a" stroke="none"/><rect x="145.8" y="482.3" width="5.5" height="154.0" fill="#191b1a" stroke="none"/><rect x="312.5" y="482.3" width="5.5" height="335.5" fill="#191b1a" stroke="none"/><rect x="535.3" y="251.3" width="5.5" height="236.5" fill="#191b1a" stroke="none"/><rect x="210.8" y="47.8" width="5.5" height="209.0" fill="#191b1a" stroke="none"/><rect x="381.3" y="47.8" width="5.5" height="137.5" fill="#191b1a" stroke="none"/><rect x="452.8" y="47.8" width="5.5" height="209.0" fill="#191b1a" stroke="none"/><rect x="45.8" y="630.8" width="211.8" height="5.5" fill="#191b1a" stroke="none"/><rect x="45.8" y="482.3" width="577.5" height="5.5" fill="#191b1a" stroke="none"/><rect x="45.8" y="251.3" width="577.5" height="5.5" fill="#191b1a" stroke="none"/><rect x="210.8" y="179.8" width="247.5" height="5.5" fill="#191b1a" stroke="none"/><!-- Presentational windows only; derived from exterior wall runs and never added to the Stage6Record. --><g class="presentational-window" data-room-id="master"><rect x="99.4" y="817.8" width="99.0" height="13.8" fill="#fff" stroke="none"/><line x1="99.4" y1="822.1" x2="198.4" y2="822.1" stroke="#3d4240" stroke-width="0.8" stroke-linecap="square"/><line x1="99.4" y1="827.1" x2="198.4" y2="827.1" stroke="#3d4240" stroke-width="0.8" stroke-linecap="square"/></g><g class="presentational-window" data-room-id="master"><rect x="32.0" y="681.6" width="13.8" height="90.8" fill="#fff" stroke="none"/><line x1="36.4" y1="681.6" x2="36.4" y2="772.4" stroke="#3d4240" stroke-width="0.8" stroke-linecap="square"/><line x1="41.4" y1="681.6" x2="41.4" y2="772.4" stroke="#3d4240" stroke-width="0.8" stroke-linecap="square"/></g><g class="presentational-window" data-room-id="core"><rect x="32.0" y="320.0" width="13.8" height="99.0" fill="#fff" stroke="none"/><line x1="36.4" y1="320.0" x2="36.4" y2="419.0" stroke="#3d4240" stroke-width="0.8" stroke-linecap="square"/><line x1="41.4" y1="320.0" x2="41.4" y2="419.0" stroke="#3d4240" stroke-width="0.8" stroke-linecap="square"/></g><g class="presentational-window" data-room-id="bed2"><rect x="87.0" y="34.0" width="82.5" height="13.8" fill="#fff" stroke="none"/><line x1="87.0" y1="38.4" x2="169.5" y2="38.4" stroke="#3d4240" stroke-width="0.8" stroke-linecap="square"/><line x1="87.0" y1="43.4" x2="169.5" y2="43.4" stroke="#3d4240" stroke-width="0.8" stroke-linecap="square"/></g><g class="presentational-window" data-room-id="bed2"><rect x="32.0" y="100.0" width="13.8" height="99.0" fill="#fff" stroke="none"/><line x1="36.4" y1="100.0" x2="36.4" y2="199.0" stroke="#3d4240" stroke-width="0.8" stroke-linecap="square"/><line x1="41.4" y1="100.0" x2="41.4" y2="199.0" stroke="#3d4240" stroke-width="0.8" stroke-linecap="square"/></g><g class="presentational-window" data-room-id="bed3"><rect x="499.5" y="34.0" width="82.5" height="13.8" fill="#fff" stroke="none"/><line x1="499.5" y1="38.4" x2="582.0" y2="38.4" stroke="#3d4240" stroke-width="0.8" stroke-linecap="square"/><line x1="499.5" y1="43.4" x2="582.0" y2="43.4" stroke="#3d4240" stroke-width="0.8" stroke-linecap="square"/></g><g class="presentational-window" data-room-id="bed3"><rect x="623.3" y="100.0" width="13.8" height="99.0" fill="#fff" stroke="none"/><line x1="627.6" y1="100.0" x2="627.6" y2="199.0" stroke="#3d4240" stroke-width="0.8" stroke-linecap="square"/><line x1="632.6" y1="100.0" x2="632.6" y2="199.0" stroke="#3d4240" stroke-width="0.8" stroke-linecap="square"/></g><g data-door-id="D-master" data-door-style="swing"><rect x="252.0" y="668.7" width="5.5" height="45.1" fill="#fff" stroke="none"/><path d="M254.8 668.7 L209.7 668.7 M254.8 713.8 A45.1 45.1 0 0 1 209.7 668.7" fill="none" stroke="#111312" stroke-width="0.8" stroke-linecap="square"/></g><g data-door-id="D-wir" data-door-style="swing"><rect x="73.3" y="630.8" width="45.1" height="5.5" fill="#fff" stroke="none"/><path d="M73.3 633.5 L73.3 588.4 M118.3 633.5 A45.1 45.1 0 0 0 73.3 588.4" fill="none" stroke="#111312" stroke-width="0.8" stroke-linecap="square"/></g><g data-door-id="D-ensuite" data-door-style="swing"><rect x="145.8" y="536.7" width="5.5" height="45.1" fill="#fff" stroke="none"/><path d="M148.6 536.7 L193.7 536.7 M148.6 581.8 A45.1 45.1 0 0 0 193.7 536.7" fill="none" stroke="#111312" stroke-width="0.8" stroke-linecap="square"/></g><g data-door-id="D-garage" data-door-style="swing"><rect x="312.5" y="594.5" width="5.5" height="45.1" fill="#fff" stroke="none"/><path d="M315.3 594.5 L360.4 594.5 M315.3 639.5 A45.1 45.1 0 0 0 360.4 594.5" fill="none" stroke="#111312" stroke-width="0.8" stroke-linecap="square"/></g><g data-door-id="D-bed2" data-door-style="swing"><rect x="210.8" y="195.7" width="5.5" height="45.1" fill="#fff" stroke="none"/><path d="M213.5 195.7 L168.4 195.7 M213.5 240.8 A45.1 45.1 0 0 1 168.4 195.7" fill="none" stroke="#111312" stroke-width="0.8" stroke-linecap="square"/></g><g data-door-id="D-bath" data-door-style="swing"><rect x="276.2" y="179.8" width="45.1" height="5.5" fill="#fff" stroke="none"/><path d="M276.2 182.5 L276.2 137.4 M321.3 182.5 A45.1 45.1 0 0 0 276.2 137.4" fill="none" stroke="#111312" stroke-width="0.8" stroke-linecap="square"/></g><g data-door-id="D-wc" data-door-style="swing"><rect x="397.2" y="179.8" width="45.1" height="5.5" fill="#fff" stroke="none"/><path d="M397.2 182.5 L397.2 137.4 M442.3 182.5 A45.1 45.1 0 0 0 397.2 137.4" fill="none" stroke="#111312" stroke-width="0.8" stroke-linecap="square"/></g><g data-door-id="D-bed3" data-door-style="swing"><rect x="452.8" y="195.7" width="5.5" height="45.1" fill="#fff" stroke="none"/><path d="M455.5 195.7 L500.6 195.7 M455.5 240.8 A45.1 45.1 0 0 0 500.6 195.7" fill="none" stroke="#111312" stroke-width="0.8" stroke-linecap="square"/></g><g data-door-id="D-flex-side" data-door-style="swing"><rect x="535.3" y="346.9" width="5.5" height="45.1" fill="#fff" stroke="none"/><path d="M538.0 346.9 L583.1 346.9 M538.0 392.1 A45.1 45.1 0 0 0 583.1 346.9" fill="none" stroke="#111312" stroke-width="0.8" stroke-linecap="square"/></g><g data-door-id="C-H-stem-core" data-door-style="cased"><rect x="262.4" y="482.3" width="45.1" height="5.5" fill="#fff" stroke="none"/></g><g data-door-id="C-H-rear-core" data-door-style="cased"><rect x="268.5" y="251.3" width="132.0" height="5.5" fill="#fff" stroke="none"/></g><g data-door-id="D-front" data-door-style="swing"><rect x="259.7" y="817.8" width="50.6" height="13.8" fill="#fff" stroke="none"/><path d="M259.7 824.6 L259.7 774.0 M310.3 824.6 A50.6 50.6 0 0 0 259.7 774.0" fill="none" stroke="#111312" stroke-width="0.8" stroke-linecap="square"/></g><g data-door-id="D-vehicle" data-door-style="vehicle"><rect x="338.6" y="817.8" width="264.0" height="13.8" fill="#fff" stroke="none"/><line x1="338.6" y1="822.1" x2="602.6" y2="822.1" stroke="#3d4240" stroke-width="0.8" stroke-linecap="square"/><line x1="338.6" y1="827.1" x2="602.6" y2="827.1" stroke="#3d4240" stroke-width="0.8" stroke-linecap="square"/></g><g class="room-label" data-room-id="master"><text x="123.6" y="723.7" font-size="12.0" font-weight="500" text-anchor="middle" fill="#111312">Master</text><text x="123.6" y="738.4" font-size="11.0" text-anchor="middle" fill="#111312">3.8 x 3.3</text></g><g class="room-label" data-room-id="wir"><text x="95.8" y="530.7" font-size="12.0" font-weight="500" text-anchor="middle" fill="#111312">WIR</text><text x="95.8" y="545.3" font-size="11.0" text-anchor="middle" fill="#111312">2.6 x 1.8</text></g><g class="room-label" data-room-id="ensuite"><text x="227.0" y="556.2" font-size="10.2" font-weight="500" text-anchor="middle" fill="#111312">Ensuite</text><text x="227.0" y="569.1" font-size="9.3" text-anchor="middle" fill="#111312">2.6 x 1.8</text></g><g class="room-label" data-room-id="garage"><text x="495.9" y="649.5" font-size="12.0" font-weight="500" text-anchor="middle" fill="#111312">Double Garage</text><text x="495.9" y="664.1" font-size="11.0" text-anchor="middle" fill="#111312">6.0 x 5.5</text></g><g class="room-label" data-room-id="core"><text x="290.5" y="366.2" font-size="12.0" font-weight="500" text-anchor="middle" fill="#111312">Family Core</text><text x="290.5" y="380.9" font-size="11.0" text-anchor="middle" fill="#111312">8.9 x 4.1</text></g><g class="room-label" data-room-id="bed2"><text x="103.0" y="146.2" font-size="12.0" font-weight="500" text-anchor="middle" fill="#111312">Bedroom 2</text><text x="103.0" y="160.8" font-size="11.0" text-anchor="middle" fill="#111312">3.7 x 3.0</text></g><g class="room-label" data-room-id="bath"><text x="298.8" y="85.2" font-size="12.0" font-weight="500" text-anchor="middle" fill="#111312">Shared Bathroom</text><text x="298.8" y="99.8" font-size="11.0" text-anchor="middle" fill="#111312">3.0 x 2.4</text></g><g class="room-label" data-room-id="wc"><text x="419.8" y="85.2" font-size="11.8" font-weight="500" text-anchor="middle" fill="#111312">WC</text><text x="419.8" y="99.7" font-size="10.8" text-anchor="middle" fill="#111312">2.4 x 1.2</text></g><g class="room-label" data-room-id="bed3"><text x="566.0" y="146.2" font-size="12.0" font-weight="500" text-anchor="middle" fill="#111312">Bedroom 3</text><text x="566.0" y="160.8" font-size="11.0" text-anchor="middle" fill="#111312">3.7 x 3.0</text></g><g class="flex-label" data-flex-id="flex-side"><text x="582.0" y="367.5" font-size="9" font-weight="500" text-anchor="middle" fill="#111312">Flex</text><text x="582.0" y="378.5" font-size="8" text-anchor="middle" fill="#111312">4.1 x 1.5</text></g><text x="334.5" y="20" font-size="13" font-weight="600" text-anchor="middle" fill="#111312">GB-01 without Alfresco (D63) | T4 rear-lobby | seed 1 | provisional · candidate 1-0</text><text x="334.5" y="849.5" font-size="9" letter-spacing="1.2" text-anchor="middle" fill="#111312">FRONT</text></svg>