<svg xmlns="http://www.w3.org/2000/svg" width="889" height="1090" viewBox="0 0 889 1090" role="img" aria-label="FIXTURE-A (no Alfresco in the program, D63) | T2 B-no-alfresco | seed 4 | provisional · candidate 4-0" font-family="Arial, Helvetica, sans-serif" shape-rendering="geometricPrecision"><rect width="100%" height="100%" fill="#fff"/><title>FIXTURE-A (no Alfresco in the program, D63) | T2 B-no-alfresco | seed 4 | provisional · candidate 4-0</title><rect x="45.8" y="47.8" width="797.5" height="968.0" fill="#eef1ef" stroke="none"/><rect x="45.8" y="795.8" width="184.8" height="220.0" fill="#eef1ef" stroke="none"/><rect x="236.1" y="795.8" width="176.0" height="220.0" fill="#eef1ef" stroke="none"/><rect x="45.8" y="570.3" width="184.8" height="148.5" fill="#eef1ef" stroke="none"/><rect x="236.1" y="570.3" width="110.5" height="148.5" fill="#eef1ef" stroke="none"/><rect x="352.1" y="570.3" width="60.0" height="148.5" fill="#eef1ef" stroke="none"/><rect x="45.8" y="410.8" width="184.8" height="154.0" fill="#eef1ef" stroke="none"/><rect x="236.1" y="410.8" width="176.0" height="154.0" fill="#eef1ef" stroke="none"/><rect x="483.6" y="696.8" width="359.7" height="319.0" fill="#eef1ef" stroke="none"/><rect x="483.6" y="410.8" width="208.4" height="280.5" fill="#eef1ef" stroke="none"/><rect x="697.5" y="548.3" width="145.8" height="143.0" fill="#eef1ef" stroke="none"/><rect x="697.5" y="410.8" width="145.8" height="132.0" fill="#eef1ef" stroke="none"/><rect x="45.8" y="47.8" width="495.0" height="357.5" fill="#eef1ef" stroke="none"/><rect x="417.6" y="944.3" width="60.5" height="71.5" fill="#eef1ef" stroke="none"/><rect x="417.6" y="410.8" width="60.5" height="533.5" fill="#eef1ef" stroke="none"/><rect x="45.8" y="724.3" width="366.3" height="66.0" fill="#eef1ef" stroke="none"/><rect x="387.3" y="724.3" width="55.0" height="66.0" fill="#eef1ef" stroke="none"/><rect x="32.0" y="34.0" width="825.0" height="13.8" fill="#191b1a" stroke="none"/><rect x="32.0" y="1015.8" width="825.0" height="13.8" fill="#191b1a" stroke="none"/><rect x="32.0" y="47.8" width="13.8" height="968.0" fill="#191b1a" stroke="none"/><rect x="843.3" y="47.8" width="13.8" height="968.0" fill="#191b1a" stroke="none"/><rect x="230.6" y="405.3" width="5.5" height="319.0" fill="#191b1a" stroke="none"/><rect x="230.6" y="790.3" width="5.5" height="225.5" fill="#191b1a" stroke="none"/><rect x="412.1" y="405.3" width="5.5" height="319.0" fill="#191b1a" stroke="none"/><rect x="412.1" y="790.3" width="5.5" height="225.5" fill="#191b1a" stroke="none"/><rect x="346.6" y="564.8" width="5.5" height="159.5" fill="#191b1a" stroke="none"/><rect x="478.1" y="405.3" width="5.5" height="610.5" fill="#191b1a" stroke="none"/><rect x="692.0" y="405.3" width="5.5" height="291.5" fill="#191b1a" stroke="none"/><rect x="540.8" y="47.8" width="5.5" height="363.0" fill="#191b1a" stroke="none"/><rect x="45.8" y="790.3" width="371.8" height="5.5" fill="#191b1a" stroke="none"/><rect x="45.8" y="564.8" width="371.8" height="5.5" fill="#191b1a" stroke="none"/><rect x="45.8" y="718.8" width="371.8" height="5.5" fill="#191b1a" stroke="none"/><rect x="45.8" y="405.3" width="797.5" height="5.5" fill="#191b1a" stroke="none"/><rect x="478.1" y="691.3" width="365.2" height="5.5" fill="#191b1a" stroke="none"/><rect x="692.0" y="542.8" width="151.3" height="5.5" fill="#191b1a" stroke="none"/><!-- Presentational windows only; derived from exterior wall runs and never added to the Stage6Record. --><g class="presentational-window" data-room-id="bed2"><rect x="92.0" y="1015.8" width="92.4" height="13.8" fill="#fff" stroke="none"/><line x1="92.0" y1="1020.1" x2="184.3" y2="1020.1" stroke="#3d4240" stroke-width="0.8" stroke-linecap="square"/><line x1="92.0" y1="1025.1" x2="184.3" y2="1025.1" stroke="#3d4240" stroke-width="0.8" stroke-linecap="square"/></g><g class="presentational-window" data-room-id="bed2"><rect x="32.0" y="856.3" width="13.8" height="99.0" fill="#fff" stroke="none"/><line x1="36.4" y1="856.3" x2="36.4" y2="955.3" stroke="#3d4240" stroke-width="0.8" stroke-linecap="square"/><line x1="41.4" y1="856.3" x2="41.4" y2="955.3" stroke="#3d4240" stroke-width="0.8" stroke-linecap="square"/></g><g class="presentational-window" data-room-id="bed3"><rect x="280.1" y="1015.8" width="88.0" height="13.8" fill="#fff" stroke="none"/><line x1="280.1" y1="1020.1" x2="368.1" y2="1020.1" stroke="#3d4240" stroke-width="0.8" stroke-linecap="square"/><line x1="280.1" y1="1025.1" x2="368.1" y2="1025.1" stroke="#3d4240" stroke-width="0.8" stroke-linecap="square"/></g><g class="presentational-window" data-room-id="bed4"><rect x="32.0" y="607.4" width="13.8" height="74.3" fill="#fff" stroke="none"/><line x1="36.4" y1="607.4" x2="36.4" y2="681.6" stroke="#3d4240" stroke-width="0.8" stroke-linecap="square"/><line x1="41.4" y1="607.4" x2="41.4" y2="681.6" stroke="#3d4240" stroke-width="0.8" stroke-linecap="square"/></g><g class="presentational-window" data-room-id="core"><rect x="243.8" y="34.0" width="99.0" height="13.8" fill="#fff" stroke="none"/><line x1="243.8" y1="38.4" x2="342.8" y2="38.4" stroke="#3d4240" stroke-width="0.8" stroke-linecap="square"/><line x1="243.8" y1="43.4" x2="342.8" y2="43.4" stroke="#3d4240" stroke-width="0.8" stroke-linecap="square"/></g><g class="presentational-window" data-room-id="core"><rect x="32.0" y="177.0" width="13.8" height="99.0" fill="#fff" stroke="none"/><line x1="36.4" y1="177.0" x2="36.4" y2="276.0" stroke="#3d4240" stroke-width="0.8" stroke-linecap="square"/><line x1="41.4" y1="177.0" x2="41.4" y2="276.0" stroke="#3d4240" stroke-width="0.8" stroke-linecap="square"/></g><g data-door-id="D-bed2" data-door-style="swing"><rect x="115.6" y="790.3" width="45.1" height="5.5" fill="#fff" stroke="none"/><path d="M115.6 793.0 L115.6 838.1 M160.7 793.0 A45.1 45.1 0 0 1 115.6 838.1" fill="none" stroke="#111312" stroke-width="0.8" stroke-linecap="square"/></g><g data-door-id="D-bed3" data-door-style="swing"><rect x="301.5" y="790.3" width="45.1" height="5.5" fill="#fff" stroke="none"/><path d="M301.5 793.0 L301.5 838.1 M346.6 793.0 A45.1 45.1 0 0 1 301.5 838.1" fill="none" stroke="#111312" stroke-width="0.8" stroke-linecap="square"/></g><g data-door-id="D-bed4" data-door-style="swing"><rect x="115.6" y="718.8" width="45.1" height="5.5" fill="#fff" stroke="none"/><path d="M115.6 721.5 L115.6 676.4 M160.7 721.5 A45.1 45.1 0 0 0 115.6 676.4" fill="none" stroke="#111312" stroke-width="0.8" stroke-linecap="square"/></g><g data-door-id="D-bath" data-door-style="swing"><rect x="269.1" y="718.8" width="45.1" height="5.5" fill="#fff" stroke="none"/><path d="M269.1 721.5 L269.1 676.4 M314.1 721.5 A45.1 45.1 0 0 0 269.1 676.4" fill="none" stroke="#111312" stroke-width="0.8" stroke-linecap="square"/></g><g data-door-id="D-wc" data-door-style="swing"><rect x="412.1" y="622.0" width="5.5" height="45.1" fill="#fff" stroke="none"/><path d="M414.8 622.0 L369.7 622.0 M414.8 667.0 A45.1 45.1 0 0 1 369.7 622.0" fill="none" stroke="#111312" stroke-width="0.8" stroke-linecap="square"/></g><g data-door-id="D-laundry" data-door-style="swing"><rect x="115.6" y="405.3" width="45.1" height="5.5" fill="#fff" stroke="none"/><path d="M115.6 408.0 L115.6 453.1 M160.7 408.0 A45.1 45.1 0 0 1 115.6 453.1" fill="none" stroke="#111312" stroke-width="0.8" stroke-linecap="square"/></g><g data-door-id="D-pantry" data-door-style="swing"><rect x="301.5" y="405.3" width="45.1" height="5.5" fill="#fff" stroke="none"/><path d="M301.5 408.0 L301.5 453.1 M346.6 408.0 A45.1 45.1 0 0 1 301.5 453.1" fill="none" stroke="#111312" stroke-width="0.8" stroke-linecap="square"/></g><g data-door-id="D-garage" data-door-style="swing"><rect x="478.1" y="798.0" width="5.5" height="45.1" fill="#fff" stroke="none"/><path d="M480.8 798.0 L525.9 798.0 M480.8 843.0 A45.1 45.1 0 0 0 525.9 798.0" fill="none" stroke="#111312" stroke-width="0.8" stroke-linecap="square"/></g><g data-door-id="D-master" data-door-style="swing"><rect x="478.1" y="528.5" width="5.5" height="45.1" fill="#fff" stroke="none"/><path d="M480.8 528.5 L525.9 528.5 M480.8 573.5 A45.1 45.1 0 0 0 525.9 528.5" fill="none" stroke="#111312" stroke-width="0.8" stroke-linecap="square"/></g><g data-door-id="D-wir" data-door-style="swing"><rect x="692.0" y="597.2" width="5.5" height="45.1" fill="#fff" stroke="none"/><path d="M694.8 597.2 L739.9 597.2 M694.8 642.3 A45.1 45.1 0 0 0 739.9 597.2" fill="none" stroke="#111312" stroke-width="0.8" stroke-linecap="square"/></g><g data-door-id="D-ensuite" data-door-style="swing"><rect x="692.0" y="454.2" width="5.5" height="45.1" fill="#fff" stroke="none"/><path d="M694.8 454.2 L739.9 454.2 M694.8 499.3 A45.1 45.1 0 0 0 739.9 454.2" fill="none" stroke="#111312" stroke-width="0.8" stroke-linecap="square"/></g><g data-door-id="D-flex-corner" data-door-style="swing"><rect x="540.8" y="203.9" width="5.5" height="45.1" fill="#fff" stroke="none"/><path d="M543.5 203.9 L588.6 203.9 M543.5 249.1 A45.1 45.1 0 0 0 588.6 203.9" fill="none" stroke="#111312" stroke-width="0.8" stroke-linecap="square"/></g><g data-door-id="C-H-stem-core" data-door-style="cased"><rect x="422.5" y="405.3" width="50.6" height="5.5" fill="#fff" stroke="none"/></g><g data-door-id="D-front" data-door-style="swing"><rect x="422.5" y="1015.8" width="50.6" height="13.8" fill="#fff" stroke="none"/><path d="M422.5 1022.6 L422.5 972.0 M473.1 1022.6 A50.6 50.6 0 0 0 422.5 972.0" fill="none" stroke="#111312" stroke-width="0.8" stroke-linecap="square"/></g><g data-door-id="D-vehicle" data-door-style="vehicle"><rect x="531.4" y="1015.8" width="264.0" height="13.8" fill="#fff" stroke="none"/><line x1="531.4" y1="1020.1" x2="795.4" y2="1020.1" stroke="#3d4240" stroke-width="0.8" stroke-linecap="square"/><line x1="531.4" y1="1025.1" x2="795.4" y2="1025.1" stroke="#3d4240" stroke-width="0.8" stroke-linecap="square"/></g><g class="room-label" data-room-id="bed2"><text x="138.2" y="927.8" font-size="12.0" font-weight="500" text-anchor="middle" fill="#111312">Bedroom 2</text><text x="138.2" y="942.4" font-size="11.0" text-anchor="middle" fill="#111312">4.0 x 3.4</text></g><g class="room-label" data-room-id="bed3"><text x="324.1" y="927.8" font-size="12.0" font-weight="500" text-anchor="middle" fill="#111312">Bedroom 3</text><text x="324.1" y="942.4" font-size="11.0" text-anchor="middle" fill="#111312">4.0 x 3.2</text></g><g class="room-label" data-room-id="bed4"><text x="138.2" y="615.9" font-size="12.0" font-weight="500" text-anchor="middle" fill="#111312">Bedroom 4</text><text x="138.2" y="630.6" font-size="11.0" text-anchor="middle" fill="#111312">3.4 x 2.7</text></g><g class="room-label" data-room-id="bath"><text x="291.3" y="615.9" font-size="11.9" font-weight="500" text-anchor="middle" fill="#111312">Shared Bathroom</text><text x="291.3" y="630.5" font-size="10.9" text-anchor="middle" fill="#111312">2.7 x 2.0</text></g><g class="room-label" data-room-id="wc"><text x="382.1" y="641.4" font-size="10.7" font-weight="500" text-anchor="middle" fill="#111312">WC</text><text x="382.1" y="654.8" font-size="9.7" text-anchor="middle" fill="#111312">2.7 x 1.1</text></g><g class="room-label" data-room-id="laundry"><text x="138.2" y="509.7" font-size="12.0" font-weight="500" text-anchor="middle" fill="#111312">Laundry</text><text x="138.2" y="524.4" font-size="11.0" text-anchor="middle" fill="#111312">3.4 x 2.8</text></g><g class="room-label" data-room-id="pantry"><text x="324.1" y="509.7" font-size="12.0" font-weight="500" text-anchor="middle" fill="#111312">Pantry</text><text x="324.1" y="524.4" font-size="11.0" text-anchor="middle" fill="#111312">3.2 x 2.8</text></g><g class="room-label" data-room-id="garage"><text x="688.7" y="853.0" font-size="12.0" font-weight="500" text-anchor="middle" fill="#111312">Double Garage</text><text x="688.7" y="867.6" font-size="11.0" text-anchor="middle" fill="#111312">6.5 x 5.8</text></g><g class="room-label" data-room-id="master"><text x="613.1" y="547.7" font-size="12.0" font-weight="500" text-anchor="middle" fill="#111312">Master</text><text x="613.1" y="562.4" font-size="11.0" text-anchor="middle" fill="#111312">5.1 x 3.8</text></g><g class="room-label" data-room-id="wir"><text x="795.7" y="616.5" font-size="12.0" font-weight="500" text-anchor="middle" fill="#111312">WIR</text><text x="795.7" y="631.1" font-size="11.0" text-anchor="middle" fill="#111312">2.6 x 2.6</text></g><g class="room-label" data-room-id="ensuite"><text x="795.7" y="473.4" font-size="12.0" font-weight="500" text-anchor="middle" fill="#111312">Ensuite</text><text x="795.7" y="488.1" font-size="11.0" text-anchor="middle" fill="#111312">2.6 x 2.4</text></g><g class="room-label" data-room-id="core"><text x="293.3" y="223.2" font-size="12.0" font-weight="500" text-anchor="middle" fill="#111312">Family Core</text><text x="293.3" y="237.8" font-size="11.0" text-anchor="middle" fill="#111312">9.0 x 6.5</text></g><g class="flex-label" data-flex-id="flex-corner"><text x="694.8" y="224.5" font-size="9" font-weight="500" text-anchor="middle" fill="#111312">Flex Space</text><text x="694.8" y="235.5" font-size="8" text-anchor="middle" fill="#111312">6.5 x 5.4</text></g><text x="444.5" y="20" font-size="13" font-weight="600" text-anchor="middle" fill="#111312">FIXTURE-A (no Alfresco in the program, D63) | T2 B-no-alfresco | seed 4 | provisional · candidate 4-0</text><text x="444.5" y="1047.5" font-size="9" letter-spacing="1.2" text-anchor="middle" fill="#111312">FRONT</text></svg>