<svg xmlns="http://www.w3.org/2000/svg" width="736" height="1438" viewBox="0 0 736 1438" font-family="Arial, Helvetica, sans-serif"><rect width="100%" height="100%" fill="#fff"/><defs>
<pattern id="hall" width="8" height="8" patternUnits="userSpaceOnUse" patternTransform="rotate(45)"><rect width="8" height="8" fill="#fff"/><line x1="0" y1="0" x2="0" y2="8" stroke="#555" stroke-width="1.4"/></pattern>
<pattern id="flex" width="9" height="9" patternUnits="userSpaceOnUse"><rect width="9" height="9" fill="#fff"/><path d="M0 0L9 9M9 0L0 9" stroke="#666" stroke-width="1"/></pattern>
<pattern id="wall" width="4" height="4" patternUnits="userSpaceOnUse"><rect width="4" height="4" fill="#222"/></pattern>
</defs><text x="24" y="30" font-size="12" font-weight="bold" fill="#000">retained valid candidate 5 of 6</text><text x="24" y="44" font-size="11" font-weight="normal" fill="#000">GB-01 (D59 fourth reference plan, CF-01 style)   |   candidate 2-4140976   |   STAGE 6 of the real generator output</text><text x="24" y="58" font-size="11" font-weight="normal" fill="#000">seed 2   |   strategy seed CF-01   |   hallway shape: spine</text><text x="24" y="72" font-size="11" font-weight="normal" fill="#000">FINAL VALIDATION (stage 6, independent validator): VALID, all 17 rules pass</text><text x="24" y="86" font-size="11" font-weight="normal" fill="#000">footprint (outside face) 12060×14900 mm = 179.69 m2 | envelope max 12500×20500</text><text x="24" y="100" font-size="11" font-weight="normal" fill="#000">room area 142.21 m2 | hallway area 17.95 m2 (reported separately) | flex 0.00 m2</text><text x="24" y="114" font-size="11" font-weight="normal" fill="#000">All sizes are clear internal dimensions in mm unless marked. Provisional - uncalibrated (G-CALIBRATION).</text><rect x="24" y="174" width="687.5" height="1127.5" fill="none" stroke="#000" stroke-width="0.8" stroke-dasharray="1 5"/><text x="28" y="186" font-size="9">envelope max 12500×20500 (dotted)</text><rect x="418.4" y="495.8" width="55.0" height="698.0" fill="url(#hall)" stroke="#000" stroke-width="1.2"/><text x="445.9" y="842.7" font-size="9" text-anchor="middle" fill="#000" stroke="#fff" stroke-width="2.5" paint-order="stroke">Hallway strip</text><text x="445.9" y="853.7" font-size="9" text-anchor="middle" fill="#000" stroke="#fff" stroke-width="2.5" paint-order="stroke">1000×12690</text><rect x="418.4" y="1193.7" width="55.0" height="94.0" fill="url(#hall)" stroke="#000" stroke-width="1.2"/><text x="445.9" y="1238.7" font-size="9" text-anchor="middle" fill="#000" stroke="#fff" stroke-width="2.5" paint-order="stroke">ENTRY</text><text x="445.9" y="1249.7" font-size="9" text-anchor="middle" fill="#000" stroke="#fff" stroke-width="2.5" paint-order="stroke">1000×1710</text><rect x="478.9" y="808.1" width="62.1" height="56.1" fill="url(#hall)" stroke="#000" stroke-width="1.2"/><text x="509.9" y="834.2" font-size="9" text-anchor="middle" fill="#000" stroke="#fff" stroke-width="2.5" paint-order="stroke">Hallway widening (slack)</text><text x="509.9" y="845.2" font-size="9" text-anchor="middle" fill="#000" stroke="#fff" stroke-width="2.5" paint-order="stroke">1130×1020</text><rect x="478.9" y="869.8" width="55.0" height="110.0" fill="url(#hall)" stroke="#000" stroke-width="1.2"/><text x="506.4" y="922.8" font-size="9" text-anchor="middle" fill="#000" stroke="#fff" stroke-width="2.5" paint-order="stroke">Hallway widening (slack)</text><text x="506.4" y="933.8" font-size="9" text-anchor="middle" fill="#000" stroke="#fff" stroke-width="2.5" paint-order="stroke">1000×2000</text><rect x="448.6" y="808.1" width="55.0" height="56.1" fill="url(#hall)" stroke="#000" stroke-width="1.2"/><text x="476.1" y="834.2" font-size="9" text-anchor="middle" fill="#000" stroke="#fff" stroke-width="2.5" paint-order="stroke">Hallway link</text><text x="476.1" y="845.2" font-size="9" text-anchor="middle" fill="#000" stroke="#fff" stroke-width="2.5" paint-order="stroke">1000×1020</text><rect x="448.6" y="869.8" width="55.0" height="110.0" fill="url(#hall)" stroke="#000" stroke-width="1.2"/><text x="476.1" y="922.8" font-size="9" text-anchor="middle" fill="#000" stroke="#fff" stroke-width="2.5" paint-order="stroke">Hallway link</text><text x="476.1" y="933.8" font-size="9" text-anchor="middle" fill="#000" stroke="#fff" stroke-width="2.5" paint-order="stroke">1000×2000</text><rect x="478.9" y="839.5" width="55.0" height="55.0" fill="url(#hall)" stroke="#000" stroke-width="1.2"/><text x="506.4" y="865.0" font-size="9" text-anchor="middle" fill="#000" stroke="#fff" stroke-width="2.5" paint-order="stroke">Hallway link</text><text x="506.4" y="876.0" font-size="9" text-anchor="middle" fill="#000" stroke="#fff" stroke-width="2.5" paint-order="stroke">1000×1000</text><rect x="49.9" y="495.8" width="137.5" height="406.4" fill="#fff" stroke="#000" stroke-width="1.2"/><text x="118.6" y="691.0" font-size="10" text-anchor="middle" fill="#000" stroke="#fff" stroke-width="2.5" paint-order="stroke">Alfresco</text><text x="118.6" y="703.0" font-size="10" text-anchor="middle" fill="#000" stroke="#fff" stroke-width="2.5" paint-order="stroke">2500×7390 mm</text><text x="118.6" y="715.0" font-size="10" text-anchor="middle" fill="#000" stroke="#fff" stroke-width="2.5" paint-order="stroke">18.48 m2</text><rect x="192.8" y="495.8" width="220.0" height="406.4" fill="#fff" stroke="#000" stroke-width="1.2"/><text x="302.9" y="691.0" font-size="10" text-anchor="middle" fill="#000" stroke="#fff" stroke-width="2.5" paint-order="stroke">Family Core</text><text x="302.9" y="703.0" font-size="10" text-anchor="middle" fill="#000" stroke="#fff" stroke-width="2.5" paint-order="stroke">4000×7390 mm</text><text x="302.9" y="715.0" font-size="10" text-anchor="middle" fill="#000" stroke="#fff" stroke-width="2.5" paint-order="stroke">29.56 m2</text><rect x="49.9" y="907.7" width="363.0" height="380.1" fill="#fff" stroke="#000" stroke-width="1.2"/><text x="231.3" y="1089.7" font-size="10" text-anchor="middle" fill="#000" stroke="#fff" stroke-width="2.5" paint-order="stroke">Double Garage</text><text x="231.3" y="1101.7" font-size="10" text-anchor="middle" fill="#000" stroke="#fff" stroke-width="2.5" paint-order="stroke">6600×6910 mm</text><text x="231.3" y="1113.7" font-size="10" text-anchor="middle" fill="#000" stroke="#fff" stroke-width="2.5" paint-order="stroke">45.61 m2</text><rect x="478.9" y="495.8" width="206.8" height="151.3" fill="#fff" stroke="#000" stroke-width="1.2"/><text x="582.3" y="563.4" font-size="10" text-anchor="middle" fill="#000" stroke="#fff" stroke-width="2.5" paint-order="stroke">Bedroom 2</text><text x="582.3" y="575.4" font-size="10" text-anchor="middle" fill="#000" stroke="#fff" stroke-width="2.5" paint-order="stroke">3760×2750 mm</text><text x="582.3" y="587.4" font-size="10" text-anchor="middle" fill="#000" stroke="#fff" stroke-width="2.5" paint-order="stroke">10.34 m2</text><rect x="478.9" y="652.5" width="206.8" height="150.2" fill="#fff" stroke="#000" stroke-width="1.2"/><text x="582.3" y="719.6" font-size="10" text-anchor="middle" fill="#000" stroke="#fff" stroke-width="2.5" paint-order="stroke">Bedroom 3</text><text x="582.3" y="731.6" font-size="10" text-anchor="middle" fill="#000" stroke="#fff" stroke-width="2.5" paint-order="stroke">3760×2730 mm</text><text x="582.3" y="743.6" font-size="10" text-anchor="middle" fill="#000" stroke="#fff" stroke-width="2.5" paint-order="stroke">10.26 m2</text><rect x="546.5" y="808.1" width="139.2" height="56.1" fill="#fff" stroke="#000" stroke-width="1.2"/><text x="616.1" y="828.2" font-size="10" text-anchor="middle" fill="#000" stroke="#fff" stroke-width="2.5" paint-order="stroke">WC</text><text x="616.1" y="840.2" font-size="10" text-anchor="middle" fill="#000" stroke="#fff" stroke-width="2.5" paint-order="stroke">2530×1020 mm</text><text x="616.1" y="852.2" font-size="10" text-anchor="middle" fill="#000" stroke="#fff" stroke-width="2.5" paint-order="stroke">2.58 m2</text><rect x="539.4" y="869.8" width="146.3" height="110.0" fill="#fff" stroke="#000" stroke-width="1.2"/><text x="612.5" y="916.8" font-size="10" text-anchor="middle" fill="#000" stroke="#fff" stroke-width="2.5" paint-order="stroke">Shared Bathroom</text><text x="612.5" y="928.8" font-size="10" text-anchor="middle" fill="#000" stroke="#fff" stroke-width="2.5" paint-order="stroke">2660×2000 mm</text><text x="612.5" y="940.8" font-size="10" text-anchor="middle" fill="#000" stroke="#fff" stroke-width="2.5" paint-order="stroke">5.32 m2</text><rect x="478.9" y="985.3" width="99.5" height="132.0" fill="#fff" stroke="#000" stroke-width="1.2"/><text x="528.6" y="1043.3" font-size="10" text-anchor="middle" fill="#000" stroke="#fff" stroke-width="2.5" paint-order="stroke">Ensuite</text><text x="528.6" y="1055.3" font-size="10" text-anchor="middle" fill="#000" stroke="#fff" stroke-width="2.5" paint-order="stroke">1810×2400 mm</text><text x="528.6" y="1067.3" font-size="10" text-anchor="middle" fill="#000" stroke="#fff" stroke-width="2.5" paint-order="stroke">4.34 m2</text><rect x="583.9" y="985.3" width="101.8" height="132.0" fill="#fff" stroke="#000" stroke-width="1.2"/><text x="634.8" y="1043.3" font-size="10" text-anchor="middle" fill="#000" stroke="#fff" stroke-width="2.5" paint-order="stroke">WIR</text><text x="634.8" y="1055.3" font-size="10" text-anchor="middle" fill="#000" stroke="#fff" stroke-width="2.5" paint-order="stroke">1850×2400 mm</text><text x="634.8" y="1067.3" font-size="10" text-anchor="middle" fill="#000" stroke="#fff" stroke-width="2.5" paint-order="stroke">4.44 m2</text><rect x="478.9" y="1122.8" width="206.8" height="165.0" fill="#fff" stroke="#000" stroke-width="1.2"/><text x="582.3" y="1197.3" font-size="10" text-anchor="middle" fill="#000" stroke="#fff" stroke-width="2.5" paint-order="stroke">Master</text><text x="582.3" y="1209.3" font-size="10" text-anchor="middle" fill="#000" stroke="#fff" stroke-width="2.5" paint-order="stroke">3760×3000 mm</text><text x="582.3" y="1221.3" font-size="10" text-anchor="middle" fill="#000" stroke="#fff" stroke-width="2.5" paint-order="stroke">11.28 m2</text><rect x="36.1" y="482.0" width="663.3" height="13.8" fill="#222" stroke="#222" stroke-width="0.5"/><rect x="36.1" y="1287.8" width="663.3" height="13.8" fill="#222" stroke="#222" stroke-width="0.5"/><rect x="36.1" y="495.8" width="13.8" height="792.0" fill="#222" stroke="#222" stroke-width="0.5"/><rect x="685.6" y="495.8" width="13.8" height="792.0" fill="#222" stroke="#222" stroke-width="0.5"/><rect x="187.3" y="495.8" width="5.5" height="411.9" fill="#222" stroke="#222" stroke-width="0.5"/><rect x="412.9" y="495.8" width="5.5" height="792.0" fill="#222" stroke="#222" stroke-width="0.5"/><rect x="473.4" y="495.8" width="5.5" height="312.4" fill="#222" stroke="#222" stroke-width="0.5"/><rect x="473.4" y="864.3" width="5.5" height="5.5" fill="#222" stroke="#222" stroke-width="0.5"/><rect x="473.4" y="979.8" width="5.5" height="308.0" fill="#222" stroke="#222" stroke-width="0.5"/><rect x="541.0" y="802.6" width="5.5" height="67.1" fill="#222" stroke="#222" stroke-width="0.5"/><rect x="533.9" y="864.3" width="5.5" height="121.0" fill="#222" stroke="#222" stroke-width="0.5"/><rect x="578.4" y="979.8" width="5.5" height="143.0" fill="#222" stroke="#222" stroke-width="0.5"/><rect x="49.9" y="902.2" width="368.5" height="5.5" fill="#222" stroke="#222" stroke-width="0.5"/><rect x="473.4" y="647.0" width="212.3" height="5.5" fill="#222" stroke="#222" stroke-width="0.5"/><rect x="473.4" y="802.6" width="212.3" height="5.5" fill="#222" stroke="#222" stroke-width="0.5"/><rect x="533.9" y="864.3" width="151.8" height="5.5" fill="#222" stroke="#222" stroke-width="0.5"/><rect x="473.4" y="979.8" width="212.3" height="5.5" fill="#222" stroke="#222" stroke-width="0.5"/><rect x="473.4" y="1117.3" width="212.3" height="5.5" fill="#222" stroke="#222" stroke-width="0.5"/><rect x="187.3" y="804.3" width="5.5" height="45.1" fill="#fff" stroke="none"/><path d="M190.1 804.3 L145.0 804.3 M190.1 849.4 A45.1 45.1 0 0 1 145.0 804.3" fill="none" stroke="#000" stroke-width="0.9"/><rect x="412.9" y="672.9" width="5.5" height="45.1" fill="#fff" stroke="none"/><path d="M415.6 672.9 L370.5 672.9 M415.6 718.0 A45.1 45.1 0 0 1 370.5 672.9" fill="none" stroke="#000" stroke-width="0.9"/><rect x="412.9" y="1202.5" width="5.5" height="45.1" fill="#fff" stroke="none"/><path d="M415.6 1202.5 L370.5 1202.5 M415.6 1247.6 A45.1 45.1 0 0 1 370.5 1202.5" fill="none" stroke="#000" stroke-width="0.9"/><rect x="473.4" y="511.1" width="5.5" height="45.1" fill="#fff" stroke="none"/><path d="M476.1 511.1 L521.2 511.1 M476.1 556.3 A45.1 45.1 0 0 0 521.2 511.1" fill="none" stroke="#000" stroke-width="0.9"/><rect x="473.4" y="739.4" width="5.5" height="45.1" fill="#fff" stroke="none"/><path d="M476.1 739.4 L521.2 739.4 M476.1 784.5 A45.1 45.1 0 0 0 521.2 739.4" fill="none" stroke="#000" stroke-width="0.9"/><rect x="541.0" y="813.6" width="5.5" height="45.1" fill="#fff" stroke="none"/><path d="M543.8 813.6 L588.9 813.6 M543.8 858.8 A45.1 45.1 0 0 0 588.9 813.6" fill="none" stroke="#000" stroke-width="0.9"/><rect x="533.9" y="903.3" width="5.5" height="45.1" fill="#fff" stroke="none"/><path d="M536.6 903.3 L581.7 903.3 M536.6 948.4 A45.1 45.1 0 0 0 581.7 903.3" fill="none" stroke="#000" stroke-width="0.9"/><rect x="578.4" y="1042.5" width="5.5" height="45.1" fill="#fff" stroke="none"/><path d="M581.1 1042.5 L536.0 1042.5 M581.1 1087.5 A45.1 45.1 0 0 1 536.0 1042.5" fill="none" stroke="#000" stroke-width="0.9"/><rect x="620.8" y="1117.3" width="45.1" height="5.5" fill="#fff" stroke="none"/><path d="M620.8 1120.0 L620.8 1074.9 M665.9 1120.0 A45.1 45.1 0 0 0 620.8 1074.9" fill="none" stroke="#000" stroke-width="0.9"/><rect x="473.4" y="1139.8" width="5.5" height="45.1" fill="#fff" stroke="none"/><path d="M476.1 1139.8 L521.2 1139.8 M476.1 1184.9 A45.1 45.1 0 0 0 521.2 1139.8" fill="none" stroke="#000" stroke-width="0.9"/><rect x="420.6" y="1287.8" width="50.6" height="13.8" fill="#fff" stroke="none"/><rect x="420.6" y="1287.8" width="50.6" height="13.8" fill="#fff" stroke="#000" stroke-width="0.8" stroke-dasharray="4 3"/><text x="445.9" y="1312.5" font-size="9" text-anchor="middle">FRONT DOOR 920</text><rect x="99.3" y="1287.8" width="264.0" height="13.8" fill="#fff" stroke="none"/><rect x="99.3" y="1287.8" width="264.0" height="13.8" fill="#fff" stroke="#000" stroke-width="0.8" stroke-dasharray="4 3"/><text x="231.3" y="1312.5" font-size="9" text-anchor="middle">VEHICLE OPENING 4800</text><text x="24" y="146" font-size="10">Stage 6: wall bands (exterior 250, interior 100 mm, shared walls drawn once), doors, final hallway segments (links absorb the stage-4 bays).</text><text x="24" y="1334" font-size="11" font-weight="bold">Legend (no colour is used: read the labels)</text><rect x="24" y="1340" width="34" height="12" fill="url(#hall)" stroke="#000" stroke-width="1"/><text x="64" y="1350" font-size="10">Hallway strip / Entry (diagonal hatch)</text><rect x="204" y="1340" width="34" height="12" fill="#222"/><text x="244" y="1350" font-size="10">Wall band (black)</text><rect x="384" y="1340" width="34" height="12" fill="url(#flex)" stroke="#000" stroke-width="1"/><text x="424" y="1350" font-size="10">Flex patch (cross hatch)</text><path d="M564 1348 h26 M564 1348 a26 26 0 0 1 26 -26" stroke="#000" fill="none" stroke-width="1"/><text x="604" y="1350" font-size="10">Door gap with swing arc (820 clear)</text><text x="24" y="1430" font-size="10">FRONT edge is the bottom of the drawing: Entry and the Garage vehicle opening sit on it.</text></svg>